<svg width="198" height="100" viewBox="0 0 198 100" fill="none" xmlns="http://www.w3.org/2000/svg">
<g clip-path="url(#clip0_2167_1685)">
<path d="M144.936 21.4072L116.572 77.3266C112.333 85.6709 107.958 91.4415 103.452 94.6385C98.9429 97.8349 92.8195 99.4332 85.0824 99.4332C82.5908 99.4332 80.0363 99.1984 77.4111 98.7278C74.7866 98.2577 72.4321 97.6505 70.3477 96.9104L74.3866 82.8811C76.0674 83.5517 77.7357 84.0409 79.3818 84.3427C81.0309 84.6445 82.7273 84.7972 84.4782 84.7972C86.8327 84.7972 88.8189 84.5619 90.4333 84.0918C92.0477 83.6218 93.4267 82.8463 94.5704 81.7721C94.8375 81.502 95.1267 81.2002 95.4285 80.8637C95.7303 80.5266 96.1177 80.0212 96.5884 79.3511L84.4752 21.4072H101.634L108.396 61.3781L127.475 21.4072H144.936Z" fill="#1E292B"/>
<path d="M196.92 40.7843C197.187 38.9667 197.323 37.1173 197.323 35.2329C197.323 30.5905 196.043 26.9235 193.488 24.2321C190.93 21.5407 187.597 20.1934 183.495 20.1934C171.756 20.1934 167.46 27.2794 167.46 27.2794H167.159L168.153 21.404H151.499L142.312 79.4428H159.068L164.015 48.455C164.89 42.7385 166.253 38.4805 168.102 35.6874C169.951 32.8943 172.325 31.4993 175.22 31.4993C177.305 31.4993 178.868 32.1062 179.913 33.3168C180.956 34.5275 181.477 36.4119 181.477 38.9698C181.477 40.4506 181.324 41.9981 181.022 43.6123C180.956 43.965 180.883 44.3114 180.807 44.6577H196.107C196.465 43.2914 196.739 42.0013 196.92 40.7843Z" fill="#B9FF66"/>
<path d="M45.0457 32.3857C32.4815 32.3857 20.9468 37.3587 12.5643 46.3895C4.46136 55.1183 0 66.8566 0 79.4428H16.5394C16.5394 71.041 19.4311 63.3009 24.6868 57.6414C29.9044 52.0202 37.1367 48.9252 45.0457 48.9252C46.5837 48.9252 48.1121 49.0427 49.6183 49.2684L52.1953 32.9291C49.8375 32.5701 47.4448 32.3857 45.0457 32.3857Z" fill="#1E292B"/>
<path d="M46.6886 0C33.6922 0 21.7475 5.14137 13.0536 14.4772C4.63613 23.5143 0 35.6686 0 48.6999H16.5394C16.5394 39.8662 19.5995 31.7157 25.1571 25.7481C30.6861 19.8092 38.3346 16.5395 46.6886 16.5395C49.3863 16.5395 52.046 16.8699 54.6262 17.5245L57.2096 1.14076C53.7683 0.38449 50.2474 0 46.6886 0Z" fill="#1E292B"/>
<path d="M64.4542 1.24902L52.0742 79.4432H68.8296L81.2099 1.24902H64.4542Z" fill="#1E292B"/>
</g>
<defs>
<clipPath id="clip0_2167_1685">
<rect width="197.605" height="100" fill="white"/>
</clipPath>
</defs>
</svg>
