<svg width="455" height="100" viewBox="0 0 455 100" fill="none" xmlns="http://www.w3.org/2000/svg">
<g clip-path="url(#clip0_2022_3591)">
<path d="M19.4697 78.0304C10.303 78.0304 2.95455 75.9091 1.59091 75.4546C0.909095 75.1516 0.530301 74.6213 0.530301 73.9395V73.5607L1.4394 68.8637C1.59092 68.1819 2.04545 67.9546 2.65152 67.9546C2.80303 67.9546 2.95455 67.9546 3.18182 68.0304C4.69697 68.3334 11.8939 70.3788 18.7121 70.3788C24.5455 70.3788 29.697 68.7122 29.697 62.6516C29.697 56.591 24.3939 55.9091 17.5 54.9243C9.84849 53.7879 0 51.7425 0 39.697C0 27.2728 9.16667 24.0152 20.0758 24.0152C28.3333 24.0152 35.2273 25.9849 36.8182 26.4395C37.6515 26.6667 38.1061 27.197 38.1061 27.9546V28.3334L37.1212 32.9546C37.0455 33.4849 36.5909 33.9395 35.9848 33.9395C35.9091 33.9395 35.8333 33.8637 35.7576 33.8637C32.3485 33.1819 27.1212 31.7425 20.9091 31.7425C15.6818 31.7425 10.1515 32.7273 10.1515 38.7122C10.1515 44.6213 16.1364 45.4546 22.4242 46.3637C30.6818 47.6516 40.1515 48.8637 40.1515 62.0455C40.0758 74.394 30 78.0304 19.4697 78.0304ZM109.394 77.1213C106.894 77.6516 103.485 78.1061 99.5455 78.1061C91.8939 78.1061 82.5 77.3485 82.5 66.0607C82.5 56.894 88.2576 55.9091 93.8636 55.0001L106.439 52.9546V50.6819C106.439 48.7122 106.212 47.2728 104.47 46.5152C103.333 45.9849 101.667 45.8334 99.0909 45.8334C94.2424 45.8334 89.0151 47.2728 86.8939 47.8031C86.6667 47.8031 86.5151 47.8789 86.3636 47.8789C85.9848 47.8789 85.6818 47.7273 85.6061 47.2728L84.6212 42.8788V42.5758C84.6212 41.9698 85.1515 41.6667 85.4545 41.5152C87.1212 40.9092 93.6364 39.091 100.909 39.091C105.909 39.091 109.318 39.7728 111.591 41.0607C115.227 43.0304 115.909 46.3637 115.909 50.2273V69.7728C115.985 75.0758 114.242 75.9849 109.394 77.1213ZM106.515 59.1667L97.7273 60.6061C94.8485 61.0607 92.1212 61.4395 92.1212 66.0607C92.1212 71.591 96.5909 72.0455 100 72.0455C102.727 72.0455 105 71.5152 106.515 71.0607V59.1667ZM141.288 46.4395C136.97 46.4395 133.258 46.894 131.288 47.3485V76.1364C131.288 76.7425 130.833 77.197 130.227 77.197H122.955C122.5 77.197 121.742 76.7425 121.742 76.1364V45.5304C121.742 42.8031 123.333 41.894 126.742 40.9091C129.848 39.9243 134.848 39.2425 138.939 39.1667H140.152C141.136 39.1667 141.136 39.1667 141.667 39.394C141.97 39.5455 142.273 39.8485 142.273 40.5304V45.1516C142.348 45.8334 142.273 46.4395 141.288 46.4395ZM178.333 61.3637C178.333 62.1213 177.879 62.9546 176.818 62.9546H153.106C153.106 66.2122 154.015 67.9546 155.909 69.4698C157.727 70.9849 160.455 71.591 164.242 71.591C168.636 71.591 171.97 70.5304 174.167 69.9243C174.318 69.8486 174.394 69.8485 174.545 69.8485C175 69.8485 175.303 70.1516 175.53 70.8334L176.439 74.4698C176.439 74.5455 176.515 74.697 176.515 74.8486C176.515 75.3789 176.136 75.6819 175.682 75.9092C173.258 76.894 168.485 78.1819 162.879 78.1819C149.015 78.1819 143.561 72.7273 143.561 58.8637C143.561 45.5304 147.273 39.1667 161.061 39.1667C168.182 39.1667 172.576 40.9849 175.152 44.394C177.576 47.5758 178.333 52.1213 178.333 57.9546V61.3637ZM168.333 50.8334C167.424 46.9698 165.303 45.6819 161.136 45.6819C156.364 45.6819 154.394 47.1213 153.636 50.6061C153.106 52.5758 153.106 54.6213 153.106 56.9698L168.939 56.894C168.864 54.6213 168.788 52.7273 168.333 50.8334ZM258.864 77.1213C256.364 77.6516 252.955 78.1061 249.015 78.1061C241.364 78.1061 231.97 77.3485 231.97 66.0607C231.97 56.894 237.727 55.9091 243.333 55.0001L255.909 52.9546V50.6819C255.909 48.7122 255.682 47.2728 253.939 46.5152C252.803 45.9849 251.136 45.8334 248.561 45.8334C243.712 45.8334 238.485 47.2728 236.364 47.8031C236.136 47.8031 235.985 47.8789 235.833 47.8789C235.455 47.8789 235.151 47.7273 235.076 47.2728L234.091 42.8788V42.5758C234.091 41.9698 234.621 41.6667 234.924 41.5152C236.591 40.9092 243.106 39.091 250.379 39.091C255.379 39.091 258.788 39.7728 261.061 41.0607C264.697 43.0304 265.379 46.3637 265.379 50.2273V69.7728C265.454 75.0758 263.712 75.9849 258.864 77.1213ZM255.985 59.1667L247.197 60.6061C244.318 61.0607 241.591 61.4395 241.591 66.0607C241.591 71.591 246.061 72.0455 249.47 72.0455C252.197 72.0455 254.47 71.5152 255.985 71.0607V59.1667ZM303.333 77.197H296.061C295.454 77.197 294.924 76.7425 294.924 76.1364V51.1364C294.924 47.0455 293.333 45.6061 289.621 45.6061C285.379 45.6061 280.758 46.8183 280.758 46.8183V76.1364C280.758 76.7425 280.303 77.197 279.697 77.197H272.5C271.818 77.197 271.288 76.7425 271.288 76.1364V45.6061C271.288 42.8789 272.651 41.9698 276.591 40.9091C280.227 39.9243 286.136 39.091 290.682 39.091C299.545 39.091 304.394 41.3637 304.394 49.8486V76.1364C304.394 76.8182 303.939 77.197 303.333 77.197ZM344.394 76.591C344.394 76.894 344.091 77.197 343.712 77.197H334.242C333.864 77.197 333.561 77.197 333.182 76.7425L322.121 61.8182H319.697V76.1364C319.697 76.7425 319.318 77.197 318.636 77.197H311.364C310.758 77.197 310.227 76.7425 310.227 76.1364V26.6667C310.227 25.8334 310.606 25.3789 311.439 25.1516L318.409 23.9395H318.712C319.318 23.9395 319.773 24.394 319.773 25.1516V55.4546H322.197L333.409 40.5304C333.712 40.0758 333.939 40.0001 334.318 40.0001L342.955 40.2273C343.485 40.2273 343.636 40.6061 343.636 40.8334C343.636 40.9849 343.561 41.0607 343.485 41.2122L330.076 58.0304L344.242 76.1364C344.318 76.2879 344.394 76.4395 344.394 76.591ZM64.0909 39.091C59.3182 39.091 53.8636 39.8485 49.6212 41.3637C46.4394 42.3485 45.1515 43.4092 45.1515 47.1213V90.9849C45.1515 91.6667 45.6818 92.2728 46.7424 92.1213C47.7273 91.9698 53.4848 90.9091 53.4848 90.9091C54.3182 90.7576 54.697 90.3788 54.697 89.4698V77.1213C57.197 77.7273 60.3788 78.1819 63.8636 78.1819C77.0454 78.1819 79.5454 69.9243 79.5454 58.7122C79.5454 47.4243 77.7273 39.091 64.0909 39.091ZM61.3636 71.591C57.5758 71.591 54.6212 70.7576 54.6212 70.7576V46.894C54.6212 46.894 58.7879 45.7576 62.0455 45.7576C67.4242 45.7576 69.7727 46.9698 69.7727 58.4091C69.8485 69.2425 67.803 71.591 61.3636 71.591ZM209.47 77.197H185.833C185.227 77.197 184.621 76.6667 184.621 76.0607V25.9849C184.621 25.3788 185.152 24.8485 185.833 24.8485H209.47C221.439 24.8485 226.288 29.5455 226.288 38.0304C226.288 45.5304 222.121 48.2576 215.682 50.0758C222.879 51.2879 228.106 55.1516 228.106 63.4849C228.106 73.0304 221.439 77.197 209.47 77.197ZM208.485 32.197H194.848V47.3485L208.03 46.8183C213.409 46.591 216.136 44.697 216.136 39.3182C216.136 34.3182 213.788 32.197 208.485 32.197ZM208.182 54.2425L194.848 53.7879V69.9243H208.182C215.303 69.9243 217.651 66.8182 217.651 62.5001C217.651 56.6667 215.758 54.394 208.182 54.2425Z" fill="white"/>
<path d="M404.698 0C399.47 0 394.395 0.833338 389.622 2.34849C409.698 -1.96969 429.546 6.28788 436.667 23.1818C444.925 42.7273 433.107 66.4394 410.228 76.1364C389.698 84.8485 367.273 79.2424 356.895 63.9394C362.955 84.6212 382.046 99.697 404.698 99.697C432.198 99.697 454.546 77.4243 454.546 49.8485C454.546 22.2727 432.198 0 404.698 0Z" fill="white"/>
<path d="M389.412 1.29492C409.759 -3.09793 430.237 5.27353 437.59 22.7168L437.785 23.1904C445.924 43.2778 433.684 67.2055 410.619 76.9814L410.616 76.9824C389.744 85.7623 366.767 80.2038 356.142 64.4219L356.059 64.2979L356.015 64.1553C354.62 59.5853 353.926 54.7137 353.926 49.7725C353.926 27.0539 368.763 7.81152 389.321 1.31934L389.366 1.30469L389.412 1.29492Z" fill="white" stroke="#1E292B" stroke-width="2"/>
<path d="M417.5 72.2729V21.1365C417.5 20.1517 416.667 19.3184 415.682 19.3184H404.015C403.182 19.3184 402.728 19.4699 401.97 19.7729L387.046 27.5002C386.137 27.879 385.758 28.4093 385.758 29.3184V37.7275C385.758 38.7123 386.591 39.4699 387.576 39.4699H397.121V79.6972C401.515 79.0911 405.909 77.879 410.228 76.0608C412.803 74.9244 415.228 73.7123 417.5 72.2729Z" fill="#1E292B"/>
</g>
<defs>
<clipPath id="clip0_2022_3591">
<rect width="454.545" height="100" fill="white"/>
</clipPath>
</defs>
</svg>
