<svg width="102" height="101" viewBox="0 0 102 101" fill="none" xmlns="http://www.w3.org/2000/svg">
<path d="M51.7718 1C46.5445 1 41.4688 1.83334 36.696 3.34849C56.7718 -0.969692 76.6203 7.28788 83.7415 24.1818C91.9991 43.7273 80.1809 67.4394 57.3021 77.1364C36.7718 85.8485 14.3475 80.2424 3.96875 64.9394C10.0294 85.6212 29.1203 100.697 51.7718 100.697C79.2718 100.697 101.62 78.4243 101.62 50.8485C101.62 23.2727 79.2718 1 51.7718 1Z" fill="white"/>
<path d="M36.4863 2.29492C56.833 -2.09793 77.311 6.27353 84.6641 23.7168L84.8594 24.1904C92.9984 44.2778 80.7586 68.2055 57.6934 77.9814L57.6904 77.9824C36.8186 86.7623 13.8413 81.2038 3.21582 65.4219L3.13281 65.2979L3.08887 65.1553C1.69464 60.5853 1 55.7137 1 50.7725C1.00002 28.0539 15.8375 8.81152 36.3955 2.31934L36.4404 2.30469L36.4863 2.29492Z" fill="white" stroke="#1E292B" stroke-width="2"/>
<path d="M64.5745 73.2729V22.1365C64.5745 21.1517 63.7411 20.3184 62.7563 20.3184H51.0896C50.2563 20.3184 49.8017 20.4699 49.0441 20.7729L34.1199 28.5002C33.2108 28.879 32.832 29.4093 32.832 30.3184V38.7275C32.832 39.7123 33.6654 40.4699 34.6502 40.4699H44.1957V80.6972C48.5896 80.0911 52.9836 78.879 57.3017 77.0608C59.8775 75.9244 62.3017 74.7123 64.5745 73.2729Z" fill="#1E292B"/>
</svg>
