<svg width="214" height="100" viewBox="0 0 214 100" fill="none" xmlns="http://www.w3.org/2000/svg">
<g clip-path="url(#clip0_2022_4079)">
<path d="M195.24 30.2823V51.5038H200.663V27.4391C199.211 28.2581 197.386 29.2329 195.24 30.2823Z" fill="white"/>
<path d="M2.03369 51.5038V71.8507C2.46481 71.6216 2.91635 71.3843 3.3895 71.1416V51.5038H2.03369Z" fill="white"/>
<path d="M12.8804 51.5037V66.7933C13.3237 66.613 13.7779 66.4327 14.2362 66.2537V51.5037H12.8804Z" fill="white"/>
<path d="M197.273 51.5037V84.1033C197.726 83.6843 198.178 83.2667 198.629 82.8261V51.5037H197.273Z" fill="white"/>
<path d="M186.427 51.5038V92.3875C186.878 92.1122 187.331 91.8221 187.782 91.5306V51.5038H186.427Z" fill="white"/>
<path d="M175.58 51.5037V97.5247C176.031 97.3674 176.483 97.2128 176.936 97.0419V51.5037H175.58Z" fill="white"/>
<path d="M164.733 51.5037V100.032C165.183 99.9774 165.635 99.9177 166.089 99.8499V51.5037H164.733Z" fill="white"/>
<path d="M153.887 51.5037V100.227C154.335 100.263 154.785 100.297 155.242 100.324V51.5037H153.887Z" fill="white"/>
<path d="M143.04 51.5038V98.2704C143.105 98.2894 143.169 98.3124 143.234 98.3314C143.615 98.4359 144.004 98.5362 144.396 98.6351V51.5038H143.04Z" fill="white"/>
<path d="M132.193 51.5037V94.2476C132.642 94.4523 133.098 94.6408 133.549 94.8374V51.5037H132.193Z" fill="white"/>
<path d="M121.347 51.5037V88.5029C121.797 88.77 122.251 89.0277 122.703 89.2893V51.5037H121.347Z" fill="white"/>
<path d="M110.5 51.5037V81.6628C110.951 81.9597 111.404 82.2525 111.856 82.5481V51.5037H110.5Z" fill="white"/>
<path d="M99.6533 51.5037V74.5677C100.106 74.8565 100.558 75.1521 101.009 75.4436V51.5037H99.6533Z" fill="white"/>
<path d="M88.8066 51.5038V68.1249C89.2608 68.369 89.7096 68.6306 90.1624 68.8828V51.5038H88.8066Z" fill="white"/>
<path d="M77.9604 51.5037V63.2086C78.4133 63.3714 78.8661 63.5354 79.3163 63.7075V51.5037H77.9604Z" fill="white"/>
<path d="M67.1138 51.5037V60.2271C67.5666 60.3153 68.0195 60.398 68.4696 60.4956V51.5037H67.1138Z" fill="white"/>
<path d="M56.2671 51.5037V58.8875C56.72 58.9119 57.1714 58.9445 57.623 58.9771V51.5037H56.2671Z" fill="white"/>
<path d="M45.4204 51.5037V58.9771C45.8719 58.9445 46.3247 58.9296 46.7762 58.9052V51.5037H45.4204Z" fill="white"/>
<path d="M34.5732 51.5037V60.3831C35.0247 60.2977 35.4763 60.219 35.929 60.1404V51.5037H34.5732Z" fill="white"/>
<path d="M23.7271 51.5037V62.9957C24.1731 62.8629 24.6287 62.7367 25.0829 62.6079V51.5037H23.7271Z" fill="white"/>
<path d="M208.12 51.5038V80.4453C208.572 80.0724 209.024 79.701 209.476 79.3105V51.5038H208.12Z" fill="white"/>
<path d="M206.086 25.4897V51.4117H211.51V22.016C210.057 23.0166 208.233 24.207 206.086 25.4897Z" fill="white"/>
<path d="M189.816 32.7621C188.128 33.4848 186.313 34.2102 184.393 34.922V51.5038H189.816V32.7621Z" fill="white"/>
<path d="M178.969 36.7864C177.229 37.3355 175.416 37.8588 173.546 38.3484V51.5039H178.969V36.7864Z" fill="white"/>
<path d="M168.123 39.6187C166.324 39.9916 164.515 40.317 162.7 40.5908V51.5039H168.123V39.6187Z" fill="white"/>
<path d="M157.276 41.2456C155.47 41.4123 153.663 41.5411 151.853 41.6008V51.5038H157.276V41.2456Z" fill="white"/>
<path d="M146.43 41.5954C144.618 41.5411 142.81 41.4327 141.006 41.2591V51.5038H146.43V41.5954Z" fill="white"/>
<path d="M135.583 40.5503C133.765 40.2466 131.957 39.8683 130.16 39.4317V51.504H135.583V40.5503Z" fill="white"/>
<path d="M124.736 37.8995C122.911 37.3029 121.104 36.6264 119.313 35.8753V51.5039H124.736V37.8995Z" fill="white"/>
<path d="M113.89 33.3262C112.066 32.3893 110.256 31.4131 108.466 30.38V51.5038H113.89V33.3262Z" fill="white"/>
<path d="M103.043 27.1069C101.227 25.9721 99.4201 24.8183 97.6196 23.6442V51.5038H103.043V27.1069Z" fill="white"/>
<path d="M92.1968 20.0771C90.3922 18.8853 88.5862 17.6977 86.7734 16.5289V51.5039H92.1968V20.0771Z" fill="white"/>
<path d="M81.3501 13.1257C79.5549 12.0301 77.7504 10.9617 75.9268 9.9462V51.5038H81.3501V13.1257Z" fill="white"/>
<path d="M70.5034 7.12775C68.7151 6.25594 66.9132 5.42478 65.0801 4.68179V51.504H70.5034V7.12775Z" fill="white"/>
<path d="M59.6563 2.75896C58.9146 2.52575 58.1798 2.27629 57.4286 2.07022C56.4091 1.78959 55.3393 1.52922 54.2329 1.28928V51.5038H59.6563V2.75896Z" fill="white"/>
<path d="M48.8096 0.375542C47.0701 0.168106 45.2573 0.0393257 43.3862 4.57764e-05V51.5039H48.8096V0.375542Z" fill="white"/>
<path d="M37.9629 0.164017C36.1935 0.30777 34.3835 0.546402 32.5396 0.893517V51.5039H37.9629V0.164017Z" fill="white"/>
<path d="M27.1166 2.21664C25.3297 2.75627 23.5197 3.40166 21.6934 4.17587V51.5038H27.1166V2.21664Z" fill="white"/>
<path d="M16.27 6.8291C14.4695 7.83107 12.6608 8.96859 10.8467 10.2403V51.5037H16.27V6.8291Z" fill="white"/>
<path d="M5.42331 51.5039V14.4748C3.61193 16.0395 1.8019 17.7437 0 19.6256V51.5039H5.42331Z" fill="white"/>
<path d="M3.17965 77.936V80.5758H7.8003V82.4292H3.17965V86.0642H0.870605V76.0826H8.41311V77.936H3.17965Z" fill="white"/>
<path d="M11.9136 85.5653C11.0826 85.1192 10.4317 84.5037 9.9599 83.7186C9.48941 82.935 9.25488 82.0523 9.25488 81.0748C9.25488 80.0945 9.48941 79.2132 9.9599 78.4296C10.4317 77.6432 11.0826 77.029 11.9136 76.5816C12.7462 76.1355 13.6803 75.9118 14.7162 75.9118C15.752 75.9118 16.6835 76.1355 17.5105 76.5816C18.339 77.029 18.9898 77.6432 19.4642 78.4296C19.9402 79.2132 20.1774 80.0945 20.1774 81.0748C20.1774 82.0523 19.9402 82.935 19.4642 83.7186C18.9898 84.5037 18.339 85.1192 17.5105 85.5653C16.6835 86.0127 15.752 86.2351 14.7162 86.2351C13.6803 86.2351 12.7462 86.0127 11.9136 85.5653ZM16.3133 83.861C16.7892 83.5899 17.1621 83.2129 17.4333 82.7276C17.7031 82.2435 17.8387 81.6917 17.8387 81.0748C17.8387 80.4565 17.7031 79.9034 17.4333 79.4193C17.1621 78.9353 16.7892 78.557 16.3133 78.2859C15.8374 78.0147 15.3059 77.8791 14.7162 77.8791C14.1264 77.8791 13.5949 78.0147 13.119 78.2859C12.6431 78.557 12.2716 78.9353 11.9991 79.4193C11.7293 79.9034 11.5937 80.4565 11.5937 81.0748C11.5937 81.6917 11.7293 82.2435 11.9991 82.7276C12.2716 83.2129 12.6431 83.5899 13.119 83.861C13.5949 84.1336 14.1264 84.2678 14.7162 84.2678C15.3059 84.2678 15.8374 84.1336 16.3133 83.861Z" fill="white"/>
<path d="M23.022 85.0514C22.2288 84.2624 21.8315 83.137 21.8315 81.6727V76.0827H24.1419V81.5873C24.1419 83.3743 24.8835 84.2678 26.3668 84.2678C27.0881 84.2678 27.6399 84.0522 28.0209 83.6197C28.4005 83.1858 28.5904 82.5093 28.5904 81.5873V76.0827H30.8723V81.6727C30.8723 83.137 30.475 84.2624 29.6818 85.0514C28.8873 85.8406 27.7783 86.2351 26.3519 86.2351C24.9256 86.2351 23.8165 85.8406 23.022 85.0514Z" fill="white"/>
<path d="M39.5145 86.0642L37.5892 83.2847H37.4754H35.4647V86.0642H33.1543V76.0826H37.4754C38.3593 76.0826 39.1268 76.2304 39.7789 76.5245C40.4297 76.8202 40.9313 77.2377 41.2825 77.78C41.6337 78.321 41.8099 78.9637 41.8099 79.7053C41.8099 80.447 41.6323 81.0856 41.2757 81.6225C40.9191 82.1594 40.412 82.5702 39.7571 82.8563L41.9957 86.0642H39.5145ZM38.9302 78.4146C38.5681 78.115 38.0407 77.9658 37.3465 77.9658H35.4647V81.4448H37.3465C38.0407 81.4448 38.5681 81.293 38.9302 80.9879C39.2908 80.6842 39.4725 80.2558 39.4725 79.7053C39.4725 79.144 39.2908 78.7129 38.9302 78.4146Z" fill="white"/>
<path d="M45.56 77.9658H42.3657V76.0826H51.0647V77.9658H47.8704V86.0642H45.56V77.9658Z" fill="white"/>
<path d="M61.4597 76.0826V86.0642H59.1494V81.9723H54.6141V86.0642H52.3052V76.0826H54.6141V80.0185H59.1494V76.0826H61.4597Z" fill="white"/>
<path d="M15.9568 90.3429L12.6919 100.325H10.2094L8.01432 93.5658L5.74739 100.325H3.27977L0 90.3429H2.39572L4.64913 97.358L7.00151 90.3429H9.141L11.4228 97.415L13.7467 90.3429H15.9568Z" fill="white"/>
<path d="M23.486 98.1864H18.8518L17.9678 100.325H15.6006L20.0504 90.3429H22.3309L26.7943 100.325H24.3701L23.486 98.1864ZM22.7593 96.4319L21.1757 92.6099L19.5934 96.4319H22.7593Z" fill="white"/>
<path d="M36.8905 90.3429L32.5695 100.325H30.2876L25.9814 90.3429H28.4775L31.5146 97.4719L34.5937 90.3429H36.8905Z" fill="white"/>
<path d="M45.446 98.4711V100.325H37.7178V90.3429H45.2603V92.1964H40.0132V94.363H44.6474V96.1608H40.0132V98.4711H45.446Z" fill="white"/>
<path d="M203.736 0.813179H202.356V0.000159264H206.114V0.813179H204.734V4.31177H203.736V0.813179ZM210.573 4.31177L210.567 1.72478L209.298 3.85599H208.849L207.586 1.78022V4.31177H206.65V0.000159264H207.475L209.089 2.6795L210.678 0.000159264H211.497L211.51 4.31177H210.573Z" fill="white"/>
</g>
<defs>
<clipPath id="clip0_2022_4079">
<rect width="213.968" height="100" fill="white"/>
</clipPath>
</defs>
</svg>
