<svg width="618" height="79" viewBox="0 0 618 79" fill="none" xmlns="http://www.w3.org/2000/svg">
<path d="M203.188 52.0734L211.501 46.7037C214.773 52.8356 221.663 58.5418 230.058 58.5418C236.104 58.5418 240.553 56.19 240.553 50.9026C240.553 37.2174 206.804 46.9543 206.804 24.8711C206.804 15.553 214.271 8.41858 226.116 8.41858C235.517 8.41858 243.915 12.6999 248.364 20.4215L240.052 25.7088C236.78 20.5897 231.822 17.3109 226.03 17.3109C220.578 17.3109 217.55 20.2464 217.55 24.1947C217.55 36.6234 251.386 27.4667 251.386 49.8005C251.386 61.388 241.141 67.6882 229.889 67.6882C218.638 67.6882 207.219 61.2198 203.188 52.0665V52.0734ZM260.872 55.0948V32.4244H255.502V24.7887H257.6C260.038 24.7887 260.872 23.7827 260.872 20.9228V14.7084H270.952V24.7818H281.534L280.102 32.4176H270.952V53.9171C270.952 57.3607 272.216 59.2044 275.402 59.2044C277.335 59.2044 279.433 58.6173 280.521 57.6903V65.9201C279.01 66.7578 276.658 67.6024 273.551 67.6024C265.322 67.6024 260.872 63.654 260.872 55.0879V55.0948ZM284.552 45.6908C284.552 32.2596 293.032 23.4428 305.124 23.4428C317.209 23.4428 325.69 32.2596 325.69 45.526C325.69 58.7924 317.295 67.774 305.124 67.774C292.95 67.774 284.552 59.1255 284.552 45.6908ZM305.124 59.2937C311.338 59.2937 315.537 54.0064 315.537 45.6084C315.537 37.2105 311.338 31.9232 305.124 31.9232C298.91 31.9232 294.707 37.1281 294.707 45.6084C294.707 54.0888 298.91 59.2937 305.124 59.2937ZM334.174 24.7818H343.91V33.0939C346.18 28.1431 349.792 24.0299 356.844 23.7759V33.7669C347.776 34.0999 344.247 40.4825 344.247 49.3817V66.5964H334.167V24.7784L334.174 24.7818ZM360.205 46.2779C360.205 32.4244 368.438 23.4428 380.609 23.4428C394.459 23.4428 400.423 34.7763 399.414 47.9568H370.193C370.866 56.1076 374.896 60.1383 381.193 60.1383C386.649 60.1383 390.515 56.7736 392.444 53.4193L398.995 57.8723C395.548 63.6678 389.083 67.6916 380.774 67.6916C367.676 67.6916 360.205 59.2113 360.205 46.2779ZM389.677 41.073C389.172 34.1068 385.31 30.9103 380.359 30.9103C375.404 30.9103 371.542 34.2681 370.454 41.073H389.684H389.677ZM417.38 60.4645L416.629 66.5964H407.98V9.50008H417.974V30.9103C420.996 26.2101 425.953 23.4428 431.409 23.4428C441.74 23.4428 449.626 31.9232 449.626 45.1072C449.626 58.2912 441.228 67.6916 430.908 67.6916C425.109 67.6916 420.24 65.0068 417.387 60.4714L417.38 60.4645ZM428.631 59.9632C434.846 59.9632 439.213 54.4184 439.213 45.6119C439.213 36.7985 434.763 31.3361 428.631 31.3361C422.499 31.3361 417.968 36.8775 417.968 45.6084C417.968 54.3428 422.335 59.9632 428.631 59.9632ZM457.602 24.7818H467.339V33.0939C469.605 28.1431 473.217 24.0299 480.269 23.7759V33.7669C471.201 34.0999 467.672 40.4825 467.672 49.3817V66.5964H457.592V24.7784L457.602 24.7818ZM483.884 56.7736C483.884 48.798 489.254 45.6084 503.698 40.9082C508.316 39.3117 509.579 37.7186 509.579 35.535C509.579 32.6854 506.808 31.2537 502.946 31.2537C498.246 31.2537 493.879 34.1068 492.114 37.8045L484.979 33.1008C488.248 27.3053 494.716 23.4497 503.365 23.4497C512.013 23.4497 519.399 26.8933 519.399 36.8843V53.845C519.399 58.4628 520.662 59.7263 523.433 59.8945V67.1114C516.381 67.6161 512.182 65.4291 510.668 59.9769C509.293 62.3657 507.31 64.3474 504.921 65.7201C502.531 67.0928 499.82 67.8074 497.065 67.7912C490.6 67.7912 483.884 65.2711 483.884 56.7908V56.7771V56.7736ZM499.835 60.5572C505.373 60.5572 509.655 55.2698 509.655 48.8873V44.2694C508.395 45.1896 506.802 45.9518 504.536 46.7861C497.065 49.8074 493.872 51.9086 493.872 55.857C493.872 59.5512 496.807 60.5572 499.835 60.5572ZM530.65 24.7818H540.73V30.0692C542.913 27.0478 546.862 23.6832 553.413 23.6832C563.232 23.6832 567.517 30.6528 567.517 41.9039V66.5895H557.519V42.4086C557.519 36.1942 555.253 31.7412 549.371 31.7412C543.919 31.7412 540.723 35.9402 540.723 42.1579V66.5895H530.643V24.775L530.65 24.7853V24.7818ZM575.403 45.9449C575.403 33.3446 583.042 23.4428 594.207 23.4428C600.006 23.4428 604.37 25.8771 607.141 29.9078V9.50695H617.128V66.6033H607.141V61.237C604.37 65.3535 600.171 67.7878 594.376 67.7878C583.375 67.7878 575.396 58.8027 575.396 45.9518L575.403 45.9449ZM596.477 59.8808C602.942 59.8808 607.141 54.1677 607.141 45.4333C607.141 36.7024 602.942 31.3292 596.477 31.3292C590.008 31.3292 585.809 36.7882 585.809 45.4333C585.809 54.0853 590.094 59.8808 596.477 59.8808Z" fill="white"/>
<path d="M87.1002 63.2077C105.966 63.2077 132.877 55.39 132.877 36.7435C132.877 31.1644 130.199 26.1345 125.506 22.0042C121.598 24.2359 118.58 27.5868 116.905 31.8339C118.913 33.5059 119.919 35.0681 119.919 36.7435C119.919 45.6805 100.494 50.2537 87.0934 50.2537C73.6931 50.2537 54.2707 45.6805 54.2707 36.7435C54.2707 35.0681 55.2732 33.5059 57.2817 31.8339C55.628 27.6673 52.5913 24.1966 48.6812 22.0042C43.9947 26.1345 41.3064 31.1644 41.3064 36.7435C41.3064 55.3865 68.2169 63.2077 87.0865 63.2077H87.1002ZM135.109 0.00686668C113.557 0.00686668 94.1317 18.9863 96.1402 42.9922C101.163 42.436 106.08 40.7605 108.981 39.1984C108.981 24.6822 120.706 12.9574 135.109 12.9574C149.515 12.9574 161.126 24.6822 161.126 39.0851C161.126 53.4913 149.515 65.2162 135.109 65.2162C130.586 65.1987 126.151 63.9654 122.268 61.6455C117.775 64.1115 112.966 65.9517 107.975 67.1148C115.013 73.9197 124.5 78.1701 135.109 78.1701C156.663 78.1701 174.19 60.6395 174.19 39.0885C174.194 17.5306 156.666 0.00686668 135.109 0.00686668ZM51.9223 61.6352C48.04 63.9563 43.6049 65.1908 39.0816 65.2093C24.6788 65.2093 13.0638 53.4845 13.0638 39.0816C13.0638 24.6754 24.6788 12.954 39.0816 12.954C53.4879 12.954 65.2093 24.6754 65.2093 39.1915C68.1139 40.7537 73.0304 42.4291 78.05 42.9853C80.0619 18.976 60.6361 0 39.0816 0C17.5306 0 0 17.5272 0 39.0816C0 60.6327 17.5306 78.1633 39.0816 78.1633C49.6906 78.1633 59.1769 73.9197 66.2153 67.1079C61.2252 65.9443 56.4175 64.1042 51.9257 61.6386L51.9223 61.6352ZM92.1232 23.6763C93.698 19.1996 95.9981 15.0123 98.9315 11.2819C92.4562 10.1661 81.7374 10.1661 75.2552 11.2819C78.1886 15.0123 80.4887 19.1996 82.0635 23.6763C85.4108 23.453 88.7691 23.453 92.1163 23.6763H92.1232Z" fill="white"/>
</svg>
