<svg width="618" height="79" viewBox="0 0 618 79" fill="none" xmlns="http://www.w3.org/2000/svg">
<path d="M203.683 52.3962L211.995 47.0264C215.267 53.1584 222.158 58.8646 230.552 58.8646C236.598 58.8646 241.048 56.5127 241.048 51.2254C241.048 37.5401 207.298 47.2771 207.298 25.1939C207.298 15.8758 214.766 8.74133 226.611 8.74133C236.011 8.74133 244.409 13.0227 248.859 20.7443L240.547 26.0316C237.275 20.9125 232.317 17.6337 226.525 17.6337C221.073 17.6337 218.045 20.5692 218.045 24.5175C218.045 36.9462 251.88 27.7895 251.88 50.1233C251.88 61.7108 241.635 68.011 230.384 68.011C219.133 68.011 207.714 61.5426 203.683 52.3893V52.3962ZM261.367 55.4175V32.7472H255.997V25.1115H258.095C260.532 25.1115 261.367 24.1055 261.367 21.2455V15.0312H271.447V25.1046H282.028L280.597 32.7403H271.447V54.2399C271.447 57.6835 272.71 59.5272 275.896 59.5272C277.829 59.5272 279.927 58.9401 281.016 58.0131V66.2428C279.505 67.0805 277.153 67.9251 274.046 67.9251C265.816 67.9251 261.367 63.9768 261.367 55.4106V55.4175ZM285.046 46.0136C285.046 32.5824 293.527 23.7656 305.619 23.7656C317.704 23.7656 326.184 32.5824 326.184 45.8488C326.184 59.1152 317.79 68.0968 305.619 68.0968C293.444 68.0968 285.046 59.4482 285.046 46.0136ZM305.619 59.6165C311.833 59.6165 316.032 54.3291 316.032 45.9312C316.032 37.5333 311.833 32.2459 305.619 32.2459C299.404 32.2459 295.202 37.4509 295.202 45.9312C295.202 54.4115 299.404 59.6165 305.619 59.6165ZM334.668 25.1046H344.405V33.4167C346.675 28.4658 350.286 24.3527 357.339 24.0986V34.0896C348.271 34.4227 344.742 40.8052 344.742 49.7044V66.9192H334.661V25.1012L334.668 25.1046ZM360.7 46.6007C360.7 32.7472 368.933 23.7656 381.104 23.7656C394.954 23.7656 400.918 35.099 399.908 48.2796H370.687C371.36 56.4303 375.391 60.4611 381.688 60.4611C387.143 60.4611 391.009 57.0964 392.939 53.742L399.49 58.1951C396.042 63.9905 389.578 68.0144 381.269 68.0144C368.171 68.0144 360.7 59.5341 360.7 46.6007ZM390.171 41.3958C389.667 34.4295 385.804 31.2331 380.853 31.2331C375.899 31.2331 372.037 34.5909 370.948 41.3958H390.178H390.171ZM417.875 60.7872L417.123 66.9192H408.475V9.82283H418.469V31.2331C421.49 26.5329 426.448 23.7656 431.904 23.7656C442.235 23.7656 450.121 32.2459 450.121 45.4299C450.121 58.6139 441.723 68.0144 431.402 68.0144C425.603 68.0144 420.735 65.3295 417.882 60.7941L417.875 60.7872ZM429.126 60.286C435.34 60.286 439.708 54.7411 439.708 45.9346C439.708 37.1213 435.258 31.6588 429.126 31.6588C422.994 31.6588 418.462 37.2002 418.462 45.9312C418.462 54.6656 422.829 60.286 429.126 60.286ZM458.097 25.1046H467.833V33.4167C470.099 28.4658 473.711 24.3527 480.763 24.0986V34.0896C471.696 34.4227 468.166 40.8052 468.166 49.7044V66.9192H458.086V25.1012L458.097 25.1046ZM484.379 57.0964C484.379 49.1208 489.748 45.9312 504.193 41.231C508.81 39.6345 510.074 38.0414 510.074 35.8578C510.074 33.0081 507.303 31.5764 503.441 31.5764C498.74 31.5764 494.373 34.4295 492.608 38.1272L485.474 33.4236C488.742 27.6281 495.211 23.7725 503.859 23.7725C512.508 23.7725 519.893 27.2161 519.893 37.2071V54.1678C519.893 58.7856 521.157 60.0491 523.927 60.2173V67.4342C516.875 67.9389 512.676 65.7518 511.162 60.2997C509.788 62.6884 507.805 64.6701 505.415 66.0428C503.026 67.4155 500.315 68.1302 497.559 68.114C491.094 68.114 484.379 65.5939 484.379 57.1136V57.0998V57.0964ZM500.33 60.8799C505.868 60.8799 510.149 55.5926 510.149 49.21V44.5922C508.889 45.5123 507.296 46.2745 505.03 47.1088C497.559 50.1302 494.366 52.2314 494.366 56.1797C494.366 59.874 497.302 60.8799 500.33 60.8799ZM531.144 25.1046H541.224V30.3919C543.408 27.3706 547.356 24.0059 553.907 24.0059C563.726 24.0059 568.011 30.9756 568.011 42.2266V66.9123H558.013V42.7313C558.013 36.517 555.747 32.064 549.866 32.064C544.414 32.064 541.218 36.2629 541.218 42.4807V66.9123H531.137V25.0977L531.144 25.108V25.1046ZM575.898 46.2677C575.898 33.6673 583.537 23.7656 594.702 23.7656C600.501 23.7656 604.865 26.1998 607.635 30.2306V9.8297H617.623V66.926H607.635V61.5597C604.865 65.6763 600.666 68.1105 594.87 68.1105C583.87 68.1105 575.891 59.1255 575.891 46.2745L575.898 46.2677ZM596.971 60.2036C603.436 60.2036 607.635 54.4905 607.635 45.7561C607.635 37.0251 603.436 31.652 596.971 31.652C590.503 31.652 586.304 37.111 586.304 45.7561C586.304 54.4081 590.589 60.2036 596.971 60.2036Z" fill="#1E292B"/>
<path d="M87.5949 63.5304C106.461 63.5304 133.371 55.7127 133.371 37.0663C133.371 31.4871 130.693 26.4573 126 22.327C122.093 24.5587 119.075 27.9096 117.4 32.1566C119.408 33.8287 120.414 35.3908 120.414 37.0663C120.414 46.0033 100.988 50.5765 87.588 50.5765C74.1877 50.5765 54.7653 46.0033 54.7653 37.0663C54.7653 35.3908 55.7679 33.8287 57.7764 32.1566C56.1227 27.9901 53.0859 24.5193 49.1759 22.327C44.4894 26.4573 41.8011 31.4871 41.8011 37.0663C41.8011 55.7093 68.7115 63.5304 87.5811 63.5304H87.5949ZM135.603 0.329621C114.052 0.329621 94.6263 19.3091 96.6348 43.315C101.658 42.7588 106.574 41.0833 109.475 39.5211C109.475 25.005 121.2 13.2802 135.603 13.2802C150.009 13.2802 161.621 25.005 161.621 39.4078C161.621 53.8141 150.009 65.5389 135.603 65.5389C131.08 65.5214 126.645 64.2882 122.762 61.9683C118.27 64.4343 113.461 66.2744 108.47 67.4376C115.508 74.2424 124.994 78.4929 135.603 78.4929C157.158 78.4929 174.685 60.9623 174.685 39.4113C174.688 17.8534 157.161 0.329621 135.603 0.329621ZM52.4169 61.958C48.5346 64.2791 44.0995 65.5135 39.5763 65.5321C25.1734 65.5321 13.5585 53.8072 13.5585 39.4044C13.5585 24.9981 25.1734 13.2767 39.5763 13.2767C53.9825 13.2767 65.7039 24.9981 65.7039 39.5143C68.6085 41.0764 73.5251 42.7519 78.5446 43.3081C80.5565 19.2988 61.1307 0.322754 39.5763 0.322754C18.0252 0.322754 0.494629 17.8499 0.494629 39.4044C0.494629 60.9554 18.0252 78.486 39.5763 78.486C50.1853 78.486 59.6716 74.2424 66.7099 67.4307C61.7198 66.2671 56.9121 64.427 52.4204 61.9614L52.4169 61.958ZM92.6178 23.999C94.1926 19.5224 96.4928 15.3351 99.4261 11.6047C92.9509 10.4889 82.232 10.4889 75.7499 11.6047C78.6832 15.3351 80.9834 19.5224 82.5582 23.999C85.9054 23.7757 89.2638 23.7757 92.611 23.999H92.6178Z" fill="#1E292B"/>
</svg>
