<svg width="68" height="40" viewBox="0 0 68 40" fill="none" xmlns="http://www.w3.org/2000/svg">
<path d="M64.4627 2.92227C62.6124 1.05116 60.1029 0 57.4862 0C54.8696 0 52.3601 1.05116 50.5097 2.92227L36.7044 16.8837C38.4902 14.9861 39.466 12.4541 39.4209 9.83482C39.3759 7.21559 38.3137 4.7194 36.464 2.88564C34.6141 1.05189 32.1251 0.0278016 29.5347 0.0346534C26.9444 0.0415052 24.4607 1.07875 22.6203 2.92227L2.88927 22.8765C1.0393 24.7473 0 27.2849 0 29.9307C0 32.5765 1.0393 35.1141 2.88927 36.9849C4.73924 38.8557 7.24836 39.9068 9.8646 39.9068C12.4809 39.9068 14.99 38.8557 16.8399 36.9849L30.6476 23.0235C28.8618 24.921 27.8861 27.4531 27.9311 30.0724C27.9761 32.6916 29.0383 35.1878 30.888 37.0215C32.7379 38.8553 35.2269 39.8794 37.8174 39.8726C40.4076 39.8656 42.8913 38.8285 44.7317 36.9849L64.4627 17.0307C65.3789 16.1043 66.1054 15.0046 66.6012 13.7942C67.0971 12.5839 67.3522 11.2866 67.3522 9.97649C67.3522 8.66639 67.0971 7.36911 66.6012 6.15875C66.1054 4.94839 65.3789 3.84863 64.4627 2.92227Z" fill="#1E292B"/>
</svg>
