<svg width="457" height="40" viewBox="0 0 457 40" fill="none" xmlns="http://www.w3.org/2000/svg">
<g clip-path="url(#clip0_2022_4151)">
<path d="M64.4637 2.923C62.6133 1.0519 60.1039 0.000732422 57.4872 0.000732422C54.8705 0.000732422 52.3611 1.0519 50.5107 2.923L36.7054 16.8844C38.4912 14.9868 39.4669 12.4548 39.4219 9.83556C39.3769 7.21633 38.3147 4.72013 36.465 2.88637C34.6151 1.05262 32.1261 0.028534 29.5356 0.0353858C26.9454 0.0422376 24.4617 1.07948 22.6213 2.923L2.89025 22.8772C1.04028 24.748 0.000976562 27.2856 0.000976562 29.9314C0.000976562 32.5772 1.04028 35.1148 2.89025 36.9856C4.74022 38.8565 7.24933 39.9076 9.86557 39.9076C12.4818 39.9076 14.9909 38.8565 16.8409 36.9856L30.6486 23.0242C28.8628 24.9218 27.8871 27.4538 27.9321 30.0731C27.9771 32.6924 29.0393 35.1885 30.889 37.0223C32.7389 38.856 35.2279 39.8801 37.8183 39.8733C40.4086 39.8664 42.8923 38.8292 44.7327 36.9856L64.4637 17.0314C65.3799 16.1051 66.1064 15.0053 66.6022 13.795C67.098 12.5846 67.3532 11.2873 67.3532 9.97722C67.3532 8.66712 67.098 7.36984 66.6022 6.15948C66.1064 4.94912 65.3799 3.84936 64.4637 2.923Z" fill="#1E292B"/>
<path d="M120.564 12.5109V0.862671H126.044V39.2602H119.501L107.826 20.6554C104.405 15.2627 101.932 11.1462 100.409 8.30605C100.552 12.584 100.623 19.0193 100.623 27.612V39.2602H95.0693V0.862671H101.629L113.368 19.4699C116.533 24.5381 119.003 28.6723 120.781 31.8723C120.636 27.559 120.564 21.1052 120.564 12.5109Z" fill="#1E292B"/>
<path d="M154.589 35.9181C152.066 38.5783 148.778 39.9084 144.725 39.9084C140.671 39.9084 137.383 38.5783 134.86 35.9181C132.338 33.2578 131.076 29.7342 131.074 25.347C131.074 20.9261 132.336 17.3847 134.86 14.7229C137.351 12.0996 140.64 10.7871 144.727 10.7855C148.814 10.7839 152.101 12.0964 154.589 14.7229C157.08 17.3462 158.324 20.8875 158.323 25.347C158.323 29.7694 157.078 33.2932 154.589 35.9181ZM138.806 32.6265C140.261 34.3935 142.234 35.2771 144.725 35.2771C147.215 35.2771 149.18 34.3935 150.617 32.6265C152.056 30.8595 152.776 28.433 152.778 25.347C152.78 22.261 152.059 19.8361 150.617 18.0723C149.178 16.3052 147.214 15.4217 144.725 15.4217C142.235 15.4217 140.263 16.3052 138.806 18.0723C137.348 19.8394 136.619 22.2659 136.619 25.3518C136.619 28.4378 137.348 30.8626 138.806 32.6265Z" fill="#1E292B"/>
<path d="M176.719 11.0024C177.235 10.9909 177.752 11.0086 178.266 11.0554V16.1783H176.934C174.195 16.1783 172.08 16.8619 170.586 18.2289C169.093 19.596 168.347 21.5735 168.349 24.1614V39.2602H163.014V11.4337H168.135V16.3855C169.877 12.7968 172.739 11.0024 176.719 11.0024Z" fill="#1E292B"/>
<path d="M191.437 39.9614C183.794 39.9614 179.777 36.78 179.386 30.4168H184.718C184.933 32.359 185.555 33.7246 186.586 34.5132C187.617 35.3019 189.252 35.6971 191.492 35.6988C195.546 35.6988 197.572 34.4048 197.57 31.8168C197.592 31.3111 197.485 30.8084 197.261 30.3556C197.038 29.9029 196.704 29.5152 196.291 29.2289C195.438 28.6168 193.909 28.1132 191.704 27.7181L188.878 27.1783C183.047 26.1005 180.132 23.3325 180.132 18.8747C180.132 16.396 181.073 14.4281 182.957 12.9711C184.841 11.514 187.436 10.7855 190.742 10.7855C198.317 10.7855 202.192 13.8956 202.367 20.1156H197.196C197.098 18.2458 196.529 16.9221 195.49 16.1446C194.451 15.367 192.869 14.9807 190.744 14.9855C189.038 14.9855 187.723 15.3068 186.798 15.9494C186.353 16.2487 185.992 16.659 185.75 17.1406C185.507 17.6222 185.392 18.1588 185.414 18.6988C185.393 19.1873 185.494 19.6734 185.708 20.1118C185.922 20.5503 186.242 20.9271 186.639 21.2072C187.457 21.8 188.754 22.2763 190.532 22.6361L193.413 23.1181C196.79 23.7703 199.225 24.747 200.718 26.0482C202.211 27.3494 202.958 29.147 202.958 31.4409C202.958 34.1366 201.944 36.2313 199.917 37.7253C197.89 39.2193 195.064 39.9646 191.437 39.9614Z" fill="#1E292B"/>
<path d="M231.645 39.2602H225.512L216.768 25.1855L212.181 29.7157V39.2602H206.903V0.862671H212.181V23.5133L224.287 11.4338H230.959L220.554 21.6868L231.645 39.2602Z" fill="#1E292B"/>
<path d="M259.375 10.7856C262.394 10.7856 264.758 11.6394 266.468 13.347C268.179 15.0546 269.032 17.4723 269.027 20.6V39.2602H263.695V21.3567C263.695 17.4723 261.758 15.5309 257.881 15.5326C256.104 15.5326 254.505 16.2153 253.082 17.5807C251.653 18.9832 250.938 20.9783 250.938 23.5663V39.2602H245.605V0.862671H250.938V15.2627C253.042 12.2795 255.856 10.7872 259.375 10.7856Z" fill="#1E292B"/>
<path d="M299.902 25.5638V27.1277H279.158C279.406 29.8585 280.207 31.9164 281.558 33.3012C282.909 34.686 284.741 35.3783 287.052 35.3783C290.536 35.3783 292.811 33.832 293.876 30.7397H299.266C298.518 33.5814 297.069 35.82 294.92 37.4554C292.771 39.0908 290.114 39.9084 286.947 39.9084C283.002 39.9084 279.821 38.5783 277.402 35.9181C274.984 33.2578 273.773 29.7342 273.771 25.347C273.771 20.9614 274.979 17.4377 277.397 14.7759C279.816 12.114 282.961 10.7839 286.835 10.7855C290.888 10.7855 294.088 12.1703 296.435 14.9397C298.746 17.7076 299.902 21.249 299.902 25.5638ZM286.838 15.3156C284.741 15.3156 283.025 15.963 281.691 17.2578C280.357 18.5526 279.53 20.4225 279.213 22.8675H294.41C294.162 20.5992 293.369 18.7743 292.027 17.3928C290.686 16.0112 288.956 15.3189 286.838 15.3156Z" fill="#1E292B"/>
<path d="M309.988 39.2602H304.656V0.862671H309.988V39.2602Z" fill="#1E292B"/>
<path d="M326.138 39.9614C318.494 39.9614 314.477 36.78 314.086 30.4168H319.419C319.633 32.359 320.255 33.7246 321.287 34.5132C322.319 35.3019 323.953 35.6971 326.193 35.6988C330.246 35.6988 332.274 34.4048 332.271 31.8168C332.293 31.3111 332.185 30.8084 331.961 30.3556C331.737 29.9029 331.404 29.5152 330.992 29.2289C330.139 28.6168 328.609 28.1132 326.405 27.7181L323.57 27.1807C317.739 26.1012 314.825 23.3325 314.823 18.8747C314.823 16.396 315.766 14.4281 317.651 12.9711C319.536 11.514 322.13 10.7855 325.435 10.7855C333.01 10.7855 336.886 13.8956 337.06 20.1156H331.909C331.804 18.2458 331.235 16.9245 330.203 16.1518C329.171 15.3791 327.589 14.9928 325.457 14.9928C323.751 14.9928 322.435 15.314 321.511 15.9566C321.065 16.2558 320.703 16.666 320.463 17.1476C320.219 17.6291 320.103 18.1659 320.124 18.706C320.103 19.1948 320.205 19.6808 320.42 20.1193C320.634 20.5578 320.956 20.9344 321.351 21.2144C322.169 21.8072 323.465 22.2835 325.245 22.6434L328.123 23.1253C331.502 23.7679 333.937 24.739 335.428 26.0385C336.92 27.3381 337.668 29.1356 337.67 31.4313C337.67 34.127 336.658 36.2217 334.63 37.7156C332.602 39.2096 329.772 39.9583 326.138 39.9614Z" fill="#1E292B"/>
<path d="M366.458 25.5638V27.1277H345.714C345.962 29.8585 346.762 31.9164 348.113 33.3012C349.464 34.686 351.292 35.3783 353.594 35.3783C357.077 35.3783 359.353 33.832 360.42 30.7397H365.805C365.059 33.5814 363.611 35.82 361.459 37.4554C359.307 39.0908 356.648 39.9084 353.486 39.9084C349.541 39.9084 346.36 38.5783 343.941 35.9181C341.523 33.2578 340.315 29.7342 340.315 25.347C340.315 20.9614 341.523 17.4377 343.941 14.7759C346.36 12.114 349.505 10.7839 353.382 10.7855C357.435 10.7855 360.632 12.1703 362.979 14.9397C365.297 17.7076 366.458 21.249 366.458 25.5638ZM353.394 15.3156C351.294 15.3156 349.579 15.963 348.247 17.2578C346.915 18.5526 346.088 20.4225 345.762 22.8675H360.961C360.711 20.5992 359.915 18.7743 358.578 17.3928C357.242 16.0112 355.512 15.3189 353.389 15.3156H353.394Z" fill="#1E292B"/>
<path d="M384.957 10.7855C387.976 10.7855 390.339 11.6393 392.048 13.347C393.756 15.0546 394.612 17.4723 394.609 20.6V39.2602H389.277V21.3566C389.277 17.4723 387.34 15.5309 383.463 15.5325C381.685 15.5325 380.087 16.2152 378.664 17.5807C377.235 18.9831 376.52 20.9783 376.52 23.5662V39.2602H371.199V11.4337H376.317V15.5855C378.414 12.3855 381.295 10.7855 384.957 10.7855Z" fill="#1E292B"/>
<path d="M425.484 25.5638V27.1277H404.741C404.988 29.8585 405.789 31.9164 407.14 33.3012C408.491 34.686 410.318 35.3783 412.62 35.3783C416.104 35.3783 418.379 33.832 419.447 30.7397H424.834C424.088 33.5814 422.639 35.82 420.488 37.4554C418.336 39.0908 415.677 39.9084 412.515 39.9084C408.57 39.9084 405.389 38.5783 402.97 35.9181C400.552 33.2578 399.344 29.7342 399.344 25.347C399.344 20.9614 400.552 17.4377 402.97 14.7759C405.389 12.114 408.534 10.7839 412.41 10.7855C416.463 10.7855 419.661 12.1703 422.008 14.9397C424.326 17.7076 425.484 21.249 425.484 25.5638ZM412.42 15.3156C410.321 15.3156 408.605 15.963 407.273 17.2578C405.941 18.5526 405.115 20.4225 404.793 22.8675H419.992C419.742 20.5992 418.946 18.7743 417.609 17.3928C416.273 16.0112 414.543 15.3189 412.42 15.3156Z" fill="#1E292B"/>
<path d="M457 15.8554V11.4337H451.453V3.453H446.121V11.4337H436.256V3.453H430.924V11.4337H426.501V15.8554H430.928V33.0578C430.928 35.2891 431.55 36.9077 432.794 37.9132C434.038 38.9188 435.958 39.4217 438.553 39.4217C439.549 39.4217 440.633 39.3679 441.808 39.2602V34.9397H439.406C438.27 34.9397 437.459 34.751 436.981 34.3735C436.502 33.9959 436.263 33.3935 436.266 32.5662V15.8554H446.13V33.0578C446.13 35.2891 446.752 36.9077 447.998 37.9132C449.244 38.9188 451.162 39.4217 453.757 39.4217C454.751 39.4217 455.837 39.3686 457.009 39.2602V34.9397H454.61C453.471 34.9397 452.663 34.751 452.184 34.3735C451.706 33.9959 451.467 33.3935 451.47 32.5662V15.8554H457Z" fill="#1E292B"/>
</g>
<defs>
<clipPath id="clip0_2022_4151">
<rect width="457" height="40" fill="white"/>
</clipPath>
</defs>
</svg>
