<svg width="100" height="101" viewBox="0 0 100 101" fill="none" xmlns="http://www.w3.org/2000/svg">
<path d="M54.8387 58.6155L97.2537 34.1268C93.198 21.9584 84.6131 11.8187 73.2802 5.81163C61.9474 -0.195406 48.7368 -1.60851 36.3898 1.86553C24.0428 5.33958 13.5074 13.434 6.96968 24.4693C0.431986 35.5045 -1.606 48.6332 1.27862 61.131L48.2545 34.0393L54.8387 58.6155Z" fill="#1E292B"/>
<path d="M51.7211 66.1297L45.1587 41.5644L2.65625 66.0531C6.7119 78.2215 15.2969 88.3612 26.6297 94.3682C37.9625 100.375 51.1731 101.788 63.5201 98.3143C75.8671 94.8403 86.4026 86.7458 92.9403 75.7106C99.478 64.6754 101.516 51.5467 98.6313 39.0488L51.7211 66.1297Z" fill="#1E292B"/>
</svg>
