<svg width="547" height="100" viewBox="0 0 547 100" fill="none" xmlns="http://www.w3.org/2000/svg">
<g clip-path="url(#clip0_2022_3722)">
<path d="M128.797 39.517L132.319 35.142C133.218 36.2559 134.345 37.1649 135.623 37.8081C136.902 38.4513 138.304 38.8139 139.734 38.8717C142.589 38.8717 144.011 37.5701 144.011 35.7217C144.011 33.5343 142.425 32.7468 138.815 31.5327C134.331 29.9359 129.836 27.8468 129.836 22.2251C129.836 17.4454 134.036 13.7924 139.406 13.7158C143.095 13.7173 146.656 15.0627 149.425 17.5001L146.023 21.9407C143.551 19.8845 141.375 19.0095 139.526 19.0095C137.47 19.0095 135.961 20.1032 135.961 21.9844C135.961 23.8657 137.558 24.6203 140.959 25.9656C146.111 27.9781 150.179 29.3234 150.179 35.0655C150.179 41.5623 144.514 44.2091 139.658 44.2091C137.622 44.2128 135.608 43.7982 133.74 42.9911C131.872 42.1839 130.189 41.0014 128.797 39.517Z" fill="#1E292B"/>
<path d="M155.498 37.428V27.9453H153.059V23.4173H155.498V16.7127L160.966 16.1221V23.4173H166.544V27.9453H160.966V36.6952C160.966 38.4561 161.513 39.2873 162.771 39.2873C163.676 39.2366 164.559 38.9942 165.363 38.5764L166.796 42.9513C165.126 43.8723 163.232 44.308 161.327 44.2091C157.794 44.2201 155.498 42.0326 155.498 37.428Z" fill="#1E292B"/>
<path d="M190.2 23.4168V43.8805H185.005V41.4087H184.841C184.117 42.3304 183.184 43.0662 182.119 43.555C181.054 44.0439 179.887 44.2717 178.716 44.2196C173.062 44.2196 168.949 40.0197 168.949 33.6979C168.949 27.3761 173.105 23.0777 178.596 23.0777C179.73 23.0385 180.858 23.2562 181.896 23.7146C182.934 24.1729 183.855 24.8601 184.59 25.7246H184.721V23.4168H190.2ZM184.961 33.7307C184.961 30.4495 182.774 27.9886 179.799 27.9886C176.824 27.9886 174.516 30.1761 174.516 33.7307C174.516 37.0119 176.704 39.3087 179.755 39.3087C180.47 39.3042 181.175 39.1539 181.83 38.8672C182.484 38.5804 183.072 38.1632 183.56 37.641C184.047 37.1189 184.423 36.5028 184.664 35.8304C184.905 35.158 185.006 34.4436 184.961 33.7307Z" fill="#1E292B"/>
<path d="M196.521 37.428V27.9453H194.082V23.4173H196.521V16.7127L201.99 16.1221V23.4173H207.568V27.9453H201.99V36.6952C201.99 38.4561 202.537 39.2873 203.794 39.2873C204.702 39.2351 205.589 38.993 206.397 38.5764L207.819 42.9513C206.15 43.8734 204.255 44.3092 202.351 44.2091C198.829 44.2201 196.521 42.0326 196.521 37.428Z" fill="#1E292B"/>
<path d="M211.649 17.1715C211.636 16.4904 211.827 15.8208 212.196 15.2486C212.566 14.6763 213.098 14.2274 213.724 13.9591C214.35 13.6909 215.042 13.6156 215.711 13.7429C216.381 13.8702 216.997 14.1942 217.481 14.6736C217.965 15.1529 218.295 15.7658 218.429 16.4338C218.562 17.1018 218.494 17.7945 218.232 18.4233C217.97 19.052 217.526 19.5883 216.957 19.9635C216.388 20.3387 215.721 20.5356 215.04 20.5292C214.147 20.5264 213.291 20.1728 212.657 19.5446C212.022 18.9165 211.661 18.0641 211.649 17.1715ZM212.272 23.4167H217.741V43.8804H212.272V23.4167Z" fill="#1E292B"/>
<path d="M222.289 41.2449L224.969 37.4278C225.704 38.1858 226.585 38.7877 227.558 39.1973C228.532 39.607 229.578 39.8161 230.634 39.8122C232.231 39.8122 233.15 39.145 233.15 38.1387C233.15 37.1325 232.056 36.7169 229.42 35.8747C226.062 34.781 223.131 33.1513 223.131 29.2029C223.131 25.5171 226.314 23.078 230.503 23.078C233.218 23.0175 235.866 23.9247 237.973 25.6374L235.326 29.6732C234.029 28.3499 232.278 27.5681 230.426 27.4858C229.54 27.4858 228.414 27.9451 228.414 29.0389C228.414 29.8811 229.508 30.4607 231.509 31.2263C235.961 32.8669 238.553 33.8294 238.553 37.8544C238.553 41.5074 235.961 44.2308 230.59 44.2308C227.552 44.2825 224.599 43.2204 222.289 41.2449Z" fill="#1E292B"/>
<path d="M243.705 37.428V27.9453H241.277V23.4173H243.705V16.7127L249.174 16.1221V23.4173H254.752V27.9453H249.174V36.6952C249.174 38.4561 249.721 39.2873 250.979 39.2873C251.887 39.2381 252.775 38.9957 253.582 38.5764L255.004 42.9513C253.335 43.8745 251.44 44.3103 249.535 44.2091C246.013 44.2201 243.705 42.0326 243.705 37.428Z" fill="#1E292B"/>
<path d="M258.833 17.1716C258.82 16.4909 259.01 15.8218 259.379 15.2498C259.748 14.6778 260.279 14.2288 260.905 13.9603C261.531 13.6917 262.222 13.6157 262.891 13.7421C263.56 13.8685 264.176 14.1914 264.66 14.6697C265.145 15.1479 265.476 15.7598 265.611 16.427C265.746 17.0943 265.679 17.7867 265.418 18.4157C265.158 19.0446 264.716 19.5817 264.149 19.9582C263.582 20.3347 262.915 20.5335 262.234 20.5293C261.34 20.5294 260.481 20.177 259.844 19.5486C259.208 18.9201 258.844 18.0661 258.833 17.1716ZM259.467 23.4168H264.936V43.8805H259.467V23.4168Z" fill="#1E292B"/>
<path d="M269.473 41.2451L272.163 37.4279C272.895 38.1853 273.772 38.7869 274.741 39.1967C275.711 39.6064 276.754 39.8158 277.807 39.8123C279.404 39.8123 280.322 39.1451 280.322 38.1389C280.322 37.1326 279.283 36.717 276.593 35.8748C273.246 34.7811 270.304 33.1514 270.304 29.2031C270.304 25.5172 273.487 23.0782 277.687 23.0782C280.398 23.0164 283.043 23.9239 285.146 25.6375L282.51 29.6734C281.207 28.3511 279.453 27.5698 277.599 27.4859C276.724 27.4859 275.587 27.9453 275.587 29.039C275.587 29.8812 276.68 30.4608 278.693 31.2265C283.133 32.8671 285.736 33.8295 285.736 37.8545C285.736 41.5076 283.133 44.2309 277.763 44.2309C274.728 44.2799 271.78 43.218 269.473 41.2451Z" fill="#1E292B"/>
<path d="M298.687 35.7432L295.844 39.0244V43.9243H290.375V13.0154H295.844V31.7183L303.172 23.4606H309.592L302.384 31.5979L309.712 43.9243H303.598L298.731 35.7869L298.687 35.7432Z" fill="#1E292B"/>
<path d="M323.121 41.2451L325.801 37.4279C326.535 38.1874 327.416 38.7903 328.389 39.2001C329.363 39.6099 330.41 39.8181 331.466 39.8123C333.052 39.8123 333.971 39.1451 333.971 38.1389C333.971 37.1326 332.877 36.717 330.241 35.8748C326.894 34.7811 323.952 33.1514 323.952 29.2031C323.952 25.5172 327.146 23.0782 331.335 23.0782C334.047 23.0164 336.692 23.9239 338.794 25.6375L336.158 29.6734C334.856 28.3511 333.102 27.5698 331.248 27.4859C330.373 27.4859 329.235 27.9453 329.235 29.039C329.235 29.8812 330.329 30.4608 332.341 31.2265C336.793 32.8671 339.385 33.8295 339.385 37.8545C339.385 41.5076 336.793 44.2309 331.423 44.2309C328.384 44.2826 325.431 43.2205 323.121 41.2451Z" fill="#1E292B"/>
<path d="M362.769 35.4154H348.387C348.671 36.5757 349.348 37.6018 350.303 38.3195C351.258 39.0373 352.432 39.4024 353.626 39.3529C354.569 39.3851 355.506 39.1926 356.36 38.7914C357.213 38.3901 357.96 37.7916 358.537 37.0451L362.102 40.3263C361.027 41.6069 359.672 42.6238 358.141 43.2989C356.611 43.9739 354.947 44.289 353.276 44.22C351.871 44.2763 350.471 44.0397 349.163 43.5252C347.855 43.0108 346.669 42.2298 345.679 41.232C344.689 40.2341 343.918 39.0412 343.415 37.7291C342.911 36.417 342.686 35.0145 342.754 33.6108C342.754 27.3984 347.063 23.0781 352.893 23.0781C358.898 23.0781 362.912 27.4531 362.912 33.4467C362.935 34.1062 362.888 34.7662 362.769 35.4154ZM348.43 31.4671H357.443C357.252 30.4519 356.708 29.5371 355.907 28.8845C355.107 28.2319 354.101 27.8837 353.068 27.9015C351.998 27.8514 350.945 28.1821 350.096 28.8349C349.247 29.4877 348.657 30.4203 348.43 31.4671Z" fill="#1E292B"/>
<path d="M387.292 31.7183V43.8806H381.823V33.1074C381.823 29.2028 380.434 27.9887 377.875 27.9887C375.108 27.9887 373.226 29.9137 373.226 33.5667V43.8806H367.758V23.4169H373.226V26.0637H373.303C374.11 25.1137 375.116 24.3534 376.25 23.8373C377.385 23.3211 378.619 23.0618 379.865 23.0779C384.229 23.0779 387.292 25.4294 387.292 31.7183Z" fill="#1E292B"/>
<path d="M393.482 37.428V27.9453H391.043V23.4173H393.482V16.7127L398.951 16.1221V23.4173H404.529V27.9453H398.951V36.6952C398.951 38.4561 399.498 39.2873 400.755 39.2873C401.663 39.2368 402.551 38.9945 403.358 38.5764L404.78 42.9513C403.111 43.8734 401.216 44.3092 399.312 44.2091C395.79 44.2201 393.482 42.0326 393.482 37.428Z" fill="#1E292B"/>
<path d="M421.14 23.1214V29.0823C420.594 29.0823 420.047 29.0823 419.719 29.0823C419.019 29.0449 418.319 29.1567 417.666 29.4101C417.013 29.6636 416.421 30.053 415.93 30.5525C415.439 31.052 415.059 31.6502 414.817 32.3075C414.574 32.9648 414.474 33.6661 414.523 34.365V43.8805H409.055V23.4167H414.523V26.4354C415.207 25.4116 416.13 24.5703 417.213 23.9851C418.295 23.3998 419.505 23.0883 420.736 23.0777C420.872 23.0668 421.009 23.0816 421.14 23.1214Z" fill="#1E292B"/>
<path d="M444.746 23.4168V43.8805H439.551V41.4087H439.419C438.695 42.3304 437.762 43.0662 436.697 43.555C435.632 44.0439 434.465 44.2717 433.294 44.2196C427.64 44.2196 423.527 40.0197 423.527 33.6979C423.527 27.3761 427.673 23.0777 433.174 23.0777C434.308 23.0385 435.436 23.2562 436.474 23.7146C437.512 24.1729 438.433 24.8601 439.168 25.7246H439.288V23.4168H444.746ZM439.507 33.7307C439.507 30.4495 437.319 27.9886 434.344 27.9886C431.369 27.9886 429.062 30.1761 429.062 33.7307C429.062 37.0119 431.249 39.3087 434.312 39.3087C435.025 39.3043 435.731 39.154 436.384 38.8671C437.038 38.5802 437.626 38.1628 438.112 37.6405C438.599 37.1182 438.974 36.5019 439.213 35.8296C439.453 35.1572 439.553 34.443 439.507 33.7307Z" fill="#1E292B"/>
<path d="M450.77 13.0156H456.238V43.8808H450.77V13.0156Z" fill="#1E292B"/>
<path d="M483.889 33.6981C483.889 40.0199 479.776 44.2198 474.045 44.2198C472.855 44.2752 471.668 44.0496 470.581 43.5613C469.495 43.073 468.538 42.3356 467.789 41.4089H467.669V43.8808H462.43V13.0156H467.898V25.7248H468.117C468.885 24.854 469.837 24.1647 470.903 23.7069C471.97 23.2492 473.126 23.0343 474.286 23.078C479.733 23.078 483.889 27.4857 483.889 33.6981ZM478.311 33.6981C478.311 30.1763 476.003 27.956 473.072 27.956C472.335 27.9575 471.606 28.1098 470.931 28.4038C470.255 28.6977 469.647 29.1269 469.144 29.665C468.641 30.203 468.253 30.8385 468.005 31.5322C467.757 32.2258 467.654 32.963 467.701 33.6981C467.662 34.4233 467.773 35.1488 468.026 35.8295C468.28 36.5102 468.67 37.1314 469.174 37.6546C469.678 38.1778 470.284 38.5918 470.954 38.8708C471.625 39.1497 472.346 39.2877 473.072 39.2762C476.167 39.309 478.311 37.0449 478.311 33.7309V33.6981Z" fill="#1E292B"/>
<path d="M506.561 23.417L495.526 52.1822H489.915L493.524 42.6229L485.387 23.417H491.085L496.116 36.0934L500.808 23.4279L506.561 23.417Z" fill="#1E292B"/>
<path d="M522.609 23.1214V29.0822C522.062 29.0822 521.515 29.0822 521.176 29.0822C520.47 29.0395 519.762 29.1487 519.101 29.4025C518.44 29.6563 517.841 30.0488 517.345 30.5535C516.849 31.0582 516.466 31.6635 516.223 32.3285C515.98 32.9935 515.883 33.7028 515.937 34.4087V43.9242H510.469V23.4167H515.937V26.4354C516.62 25.413 517.541 24.5728 518.622 23.9876C519.703 23.4024 520.91 23.09 522.139 23.0776C522.297 23.0598 522.457 23.0747 522.609 23.1214Z" fill="#1E292B"/>
<path d="M546.199 23.4169V43.8807H541.004V41.4088H540.872C540.15 42.3297 539.219 43.065 538.155 43.5538C537.092 44.0427 535.928 44.271 534.758 44.2197C529.093 44.2197 524.98 40.0198 524.98 33.698C524.98 27.3762 529.137 23.0779 534.627 23.0779C535.761 23.0386 536.889 23.2563 537.927 23.7147C538.965 24.1731 539.886 24.8602 540.621 25.7247H540.752V23.4169H546.199ZM540.96 33.7308C540.96 30.4496 538.772 27.9887 535.808 27.9887C532.844 27.9887 530.515 30.1762 530.515 33.7308C530.46 34.4496 530.556 35.1719 530.796 35.8516C531.036 36.5313 531.415 37.1534 531.909 37.6783C532.403 38.2033 533.001 38.6194 533.665 38.9001C534.329 39.1809 535.044 39.3201 535.765 39.3089C536.478 39.3044 537.184 39.1541 537.837 38.8673C538.491 38.5804 539.079 38.163 539.566 37.6406C540.052 37.1183 540.427 36.502 540.667 35.8297C540.906 35.1574 541.006 34.4431 540.96 33.7308ZM531.477 17.1717C531.534 16.0079 532.037 14.9106 532.881 14.1071C533.725 13.3036 534.846 12.8555 536.011 12.8555C537.176 12.8555 538.297 13.3036 539.141 14.1071C539.985 14.9106 540.487 16.0079 540.544 17.1717C540.487 18.3356 539.985 19.4328 539.141 20.2363C538.297 21.0398 537.176 21.488 536.011 21.488C534.846 21.488 533.725 21.0398 532.881 20.2363C532.037 19.4328 531.534 18.3356 531.477 17.1717ZM534.419 17.1717C534.422 17.5711 534.582 17.9534 534.865 18.2358C535.147 18.5183 535.529 18.6782 535.929 18.6811C536.146 18.6992 536.364 18.6721 536.571 18.6015C536.777 18.5308 536.966 18.4182 537.126 18.2707C537.287 18.1232 537.415 17.944 537.502 17.7445C537.59 17.545 537.635 17.3294 537.635 17.1116C537.635 16.8937 537.59 16.6782 537.502 16.4787C537.415 16.2791 537.287 16.1 537.126 15.9524C536.966 15.8049 536.777 15.6923 536.571 15.6217C536.364 15.551 536.146 15.5239 535.929 15.5421C535.521 15.5591 535.135 15.734 534.853 16.0299C534.572 16.3258 534.416 16.7195 534.419 17.128V17.1717Z" fill="#1E292B"/>
<path d="M129.617 84.8083L131.378 82.7411C132.131 83.6532 133.074 84.3893 134.142 84.8976C135.209 85.4059 136.375 85.6741 137.558 85.6833C140.292 85.6833 142.119 84.4036 142.119 82.2708C142.119 79.7552 140.106 79.0881 137.12 77.9615C133.839 76.7365 130.459 75.3256 130.459 71.4647C130.459 68.1289 133.478 65.5914 137.273 65.5586C139.867 65.5898 142.372 66.5085 144.372 68.1617L142.709 70.3491C141.211 69.0239 139.304 68.2519 137.306 68.1617C135.239 68.1617 133.347 69.2554 133.347 71.3882C133.347 73.521 135.326 74.2756 138.094 75.3803C141.867 76.824 145.006 77.8631 145.006 82.0412C145.006 86.2192 141.397 88.3192 137.558 88.3192C136.063 88.3182 134.585 88.0054 133.217 87.4009C131.85 86.7964 130.624 85.9134 129.617 84.8083Z" fill="#1E292B"/>
<path d="M149.654 83.5171V74.9751H147.707V72.7876H149.654V67.5705L152.191 67.2861V72.7548H157.288V74.9423H152.191V83.1234C152.191 84.939 152.64 85.8577 154.073 85.8577C154.985 85.8118 155.871 85.5413 156.654 85.0702L157.343 87.2577C156.218 87.9078 154.934 88.2334 153.635 88.1983C150.934 88.2639 149.654 86.6015 149.654 83.5171Z" fill="#1E292B"/>
<path d="M174.996 72.7767V88.089H172.546V85.6609C171.923 86.4838 171.116 87.1484 170.188 87.6007C169.261 88.053 168.24 88.2802 167.208 88.2639C166.195 88.2943 165.186 88.1138 164.247 87.7339C163.307 87.3539 162.456 86.7829 161.749 86.0569C161.041 85.3309 160.492 84.4658 160.137 83.5165C159.781 82.5672 159.627 81.5543 159.683 80.5422C159.683 76.0141 162.822 72.5908 167.153 72.5908C168.165 72.5739 169.167 72.7889 170.083 73.2193C170.999 73.6496 171.804 74.2839 172.436 75.0735V72.7767H174.996ZM172.546 80.5422C172.591 79.8357 172.494 79.1272 172.259 78.4594C172.024 77.7915 171.656 77.1781 171.178 76.656C170.7 76.1339 170.121 75.7139 169.477 75.4213C168.832 75.1286 168.135 74.9694 167.427 74.9532C164.539 74.9532 162.243 77.1407 162.243 80.5422C162.197 81.2371 162.296 81.9338 162.532 82.5888C162.769 83.2438 163.137 83.843 163.616 84.3491C164.094 84.8551 164.672 85.2571 165.312 85.5298C165.953 85.8026 166.643 85.9403 167.339 85.9343C168.038 85.9349 168.729 85.7942 169.371 85.5207C170.013 85.2471 170.594 84.8464 171.077 84.3426C171.56 83.8388 171.937 83.2423 172.184 82.5892C172.43 81.9361 172.542 81.2397 172.513 80.5422H172.546Z" fill="#1E292B"/>
<path d="M180.466 83.5171V74.9751H178.52V72.7876H180.466V67.5705L183.004 67.2861V72.7548H188.123V74.9423H183.037V83.1234C183.037 84.939 183.474 85.8577 184.918 85.8577C185.83 85.8118 186.717 85.5413 187.499 85.0702L188.188 87.2577C187.062 87.9062 185.779 88.2317 184.48 88.1983C181.713 88.2639 180.466 86.6015 180.466 83.5171Z" fill="#1E292B"/>
<path d="M191.512 68.1613C191.514 67.8005 191.623 67.4485 191.825 67.1495C192.027 66.8506 192.313 66.6182 192.647 66.4816C192.981 66.3451 193.348 66.3104 193.702 66.3821C194.055 66.4539 194.38 66.6287 194.634 66.8845C194.889 67.1404 195.061 67.4659 195.131 67.8199C195.201 68.1739 195.164 68.5406 195.025 68.8737C194.887 69.2068 194.653 69.4915 194.352 69.6917C194.052 69.8919 193.7 69.9988 193.339 69.9988C193.097 70.0033 192.856 69.9587 192.632 69.8678C192.408 69.777 192.204 69.6416 192.033 69.4699C191.863 69.2982 191.728 69.0938 191.639 68.8689C191.549 68.644 191.506 68.4033 191.512 68.1613ZM192.048 72.7769H194.586V88.0891H192.048V72.7769Z" fill="#1E292B"/>
<path d="M198.828 86.0663L200.152 84.1522C200.768 84.757 201.5 85.2298 202.305 85.542C203.11 85.8541 203.97 85.999 204.833 85.9678C206.648 85.9678 207.72 85.0272 207.72 83.9335C207.72 82.6101 206.309 82.1726 204.078 81.4179C201.595 80.5429 199.495 79.5039 199.495 76.7039C199.495 74.3524 201.628 72.5915 204.548 72.5915C206.464 72.5668 208.325 73.2349 209.787 74.4727L208.475 76.4852C207.36 75.4841 205.916 74.9276 204.417 74.9211C203.258 74.9211 202.066 75.6102 202.066 76.7039C202.066 77.7976 203.323 78.4648 204.953 79.0882C208.234 80.346 210.323 80.882 210.29 83.9007C210.29 86.285 208.508 88.2756 204.822 88.2756C202.617 88.3208 200.476 87.5317 198.828 86.0663Z" fill="#1E292B"/>
<path d="M214.822 83.5171V74.9751H212.875V72.7876H214.822V67.5705L217.359 67.2861V72.7548H222.456V74.9423H217.359V83.1234C217.359 84.939 217.808 85.8577 219.251 85.8577C220.16 85.8105 221.043 85.54 221.822 85.0702L222.511 87.2577C221.386 87.9078 220.102 88.2334 218.803 88.1983C216.08 88.2639 214.822 86.6015 214.822 83.5171Z" fill="#1E292B"/>
<path d="M225.879 68.1613C225.879 67.9244 225.926 67.6899 226.018 67.4714C226.109 67.2529 226.244 67.0549 226.413 66.8889C226.582 66.723 226.782 66.5923 227.002 66.5047C227.222 66.417 227.458 66.3742 227.695 66.3785C227.941 66.3592 228.189 66.3911 228.423 66.4722C228.656 66.5534 228.871 66.6819 229.052 66.8499C229.234 67.0178 229.379 67.2215 229.478 67.4481C229.577 67.6747 229.628 67.9194 229.628 68.1668C229.628 68.4141 229.577 68.6588 229.478 68.8854C229.379 69.1121 229.234 69.3157 229.052 69.4837C228.871 69.6516 228.656 69.7802 228.423 69.8613C228.189 69.9424 227.941 69.9743 227.695 69.955C227.456 69.9609 227.22 69.9187 226.998 69.831C226.777 69.7432 226.575 69.6116 226.405 69.4442C226.236 69.2767 226.102 69.0768 226.012 68.8564C225.921 68.636 225.876 68.3995 225.879 68.1613ZM226.404 72.7769H228.952V88.0891H226.404V72.7769Z" fill="#1E292B"/>
<path d="M233.567 80.4445C233.508 79.4147 233.665 78.3841 234.027 77.4181C234.388 76.4521 234.947 75.5719 235.667 74.8334C236.387 74.0949 237.252 73.5142 238.209 73.1283C239.165 72.7423 240.192 72.5595 241.223 72.5915C242.385 72.5789 243.537 72.8166 244.599 73.2884C245.662 73.7602 246.61 74.4551 247.38 75.3258L245.619 76.868C245.098 76.2465 244.442 75.7515 243.701 75.42C242.96 75.0885 242.154 74.9291 241.343 74.9539C239.893 74.9539 238.502 75.5301 237.476 76.5557C236.45 77.5812 235.874 78.9722 235.874 80.4226C235.874 81.873 236.45 83.264 237.476 84.2895C238.502 85.3151 239.893 85.8913 241.343 85.8913C242.157 85.903 242.966 85.748 243.718 85.4358C244.47 85.1235 245.151 84.6607 245.718 84.0757L247.468 85.6397C246.651 86.4818 245.668 87.1458 244.582 87.59C243.496 88.0342 242.33 88.249 241.157 88.2209C236.738 88.2647 233.567 85.0928 233.567 80.4445Z" fill="#1E292B"/>
<path d="M250.059 86.0654L251.371 84.1513C251.987 84.7561 252.72 85.2289 253.525 85.5411C254.33 85.8532 255.19 85.9981 256.052 85.9669C257.868 85.9669 258.94 85.0263 258.94 83.9326C258.94 82.6092 257.529 82.1717 255.298 81.417C252.815 80.542 250.715 79.503 250.715 76.703C250.715 74.3515 252.902 72.5906 255.768 72.5906C257.687 72.5643 259.552 73.2324 261.018 74.4718L259.694 76.4843C258.583 75.484 257.143 74.9273 255.648 74.9202C254.477 74.9202 253.285 75.6093 253.285 76.703C253.285 77.7968 254.543 78.4639 256.173 79.0874C259.454 80.3452 261.543 80.8811 261.521 83.8998C261.521 86.2841 259.727 88.2747 256.052 88.2747C253.847 88.3199 251.707 87.5309 250.059 86.0654Z" fill="#1E292B"/>
<path d="M293.293 65.7773V88.0786H290.504L278.003 70.4913H277.937V88.0786H275.203V65.7773H277.905L290.504 83.5505H290.57V65.7773H293.293Z" fill="#1E292B"/>
<path d="M298.076 80.4445C298.063 78.8835 298.514 77.3538 299.371 76.0491C300.228 74.7444 301.453 73.7235 302.891 73.1156C304.329 72.5077 305.915 72.3403 307.448 72.6345C308.981 72.9286 310.392 73.6712 311.503 74.7681C312.613 75.865 313.374 77.2669 313.687 78.7962C314 80.3255 313.853 81.9133 313.263 83.3586C312.673 84.804 311.667 86.0417 310.374 86.9151C309.08 87.7885 307.556 88.2582 305.995 88.2647C304.953 88.3007 303.916 88.1238 302.945 87.7448C301.975 87.3658 301.092 86.7927 300.351 86.0606C299.609 85.3285 299.025 84.4528 298.634 83.4872C298.243 82.5215 298.053 81.4862 298.076 80.4445ZM311.266 80.4445C311.236 79.3984 310.898 78.3845 310.294 77.5298C309.69 76.6752 308.847 76.0179 307.871 75.6403C306.895 75.2627 305.829 75.1817 304.807 75.4073C303.785 75.6329 302.853 76.1552 302.126 76.9087C301.4 77.6621 300.912 78.6133 300.724 79.6428C300.536 80.6723 300.656 81.7344 301.069 82.696C301.482 83.6576 302.17 84.4758 303.046 85.0481C303.923 85.6204 304.948 85.9214 305.995 85.9132C306.706 85.9215 307.412 85.7842 308.068 85.5097C308.724 85.2353 309.318 84.8295 309.812 84.3173C310.305 83.8051 310.689 83.1973 310.939 82.5313C311.19 81.8653 311.301 81.1552 311.266 80.4445Z" fill="#1E292B"/>
<path d="M326.437 72.6234V75.4671C326.087 75.4671 325.682 75.4671 325.43 75.4671C322.543 75.4671 320.782 77.6546 320.782 80.7717V88.1544H318.277V72.8421H320.826V75.4671C321.333 74.5927 322.06 73.8662 322.935 73.3597C323.81 72.8532 324.802 72.5843 325.813 72.5796C326.022 72.576 326.23 72.5906 326.437 72.6234Z" fill="#1E292B"/>
<path d="M350.707 72.7773L345.402 88.0896H343.018L339.562 76.9335L336.073 88.0896H333.754L328.449 72.7773H331.019L334.88 84.2178H334.946L338.435 72.7883H340.622L344.177 84.2178H344.243L348.136 72.7883L350.707 72.7773Z" fill="#1E292B"/>
<path d="M367.91 72.7769V88.0892H365.46V85.6611C364.838 86.484 364.03 87.1486 363.103 87.6009C362.176 88.0532 361.155 88.2804 360.123 88.2642C359.111 88.293 358.103 88.1113 357.165 87.7307C356.226 87.3501 355.377 86.7788 354.671 86.053C353.964 85.3271 353.416 84.4626 353.062 83.514C352.707 82.5655 352.553 81.5536 352.609 80.5424C352.609 76.0144 355.759 72.591 360.09 72.591C361.091 72.5842 362.08 72.804 362.983 73.234C363.887 73.6639 364.681 74.2929 365.307 75.0737V72.7769H367.91ZM365.46 80.5424C365.508 79.8356 365.411 79.1264 365.177 78.4579C364.943 77.7894 364.575 77.1753 364.097 76.6529C363.618 76.1305 363.039 75.7105 362.393 75.4184C361.748 75.1263 361.05 74.9681 360.342 74.9534C357.454 74.9534 355.168 77.1409 355.168 80.5424C355.121 81.2423 355.22 81.9444 355.459 82.6039C355.698 83.2635 356.072 83.866 356.556 84.3733C357.041 84.8805 357.626 85.2812 358.274 85.55C358.922 85.8188 359.618 85.9498 360.32 85.9345C361.015 85.9307 361.703 85.7868 362.341 85.5112C362.98 85.2357 363.556 84.8343 364.036 84.331C364.516 83.8276 364.889 83.2327 365.134 82.5818C365.379 81.9308 365.49 81.2372 365.46 80.5424Z" fill="#1E292B"/>
<path d="M386.45 72.7773L377.809 94.2911H375.152L377.886 87.4443L371.422 72.7773H374.156L379.111 84.4365H379.176L383.792 72.7773H386.45Z" fill="#1E292B"/>
<path d="M54.8387 58.4817L97.2537 33.993C93.198 21.8246 84.6131 11.6849 73.2802 5.67784C61.9474 -0.329195 48.7368 -1.7423 36.3898 1.73174C24.0428 5.20579 13.5074 13.3003 6.96968 24.3355C0.431986 35.3707 -1.606 48.4994 1.27862 60.9972L48.2545 33.9055L54.8387 58.4817Z" fill="#1E292B"/>
<path d="M51.7211 65.9959L45.1587 41.4306L2.65625 65.9193C6.7119 78.0877 15.2969 88.2274 26.6297 94.2344C37.9625 100.241 51.1731 101.655 63.5201 98.1805C75.8671 94.7065 86.4026 86.612 92.9403 75.5768C99.478 64.5416 101.516 51.4129 98.6313 38.915L51.7211 65.9959Z" fill="#1E292B"/>
</g>
<defs>
<clipPath id="clip0_2022_3722">
<rect width="546.243" height="100" fill="white"/>
</clipPath>
</defs>
</svg>
