<svg width="171" height="100" viewBox="0 0 171 100" fill="none" xmlns="http://www.w3.org/2000/svg">
<path d="M134.795 40.9174V32.2936C134.795 30.2752 133.97 28.3486 132.594 26.9725C131.217 25.5963 129.291 24.7706 127.272 24.7706C125.254 24.7706 123.327 25.5963 121.951 26.9725C120.575 28.3486 119.75 30.2752 119.75 32.2936V43.3027C115.438 44.3119 110.392 45.3211 105.346 46.3303V7.33945C105.346 6.33028 105.071 5.41284 104.704 4.49541C104.337 3.57798 103.694 2.75228 103.052 2.11008C102.318 1.46788 101.493 0.917423 100.575 0.55045C99.6578 0.183478 98.6486 0 97.7311 0C95.8045 0 93.9697 0.825683 92.5935 2.20183C91.2174 3.57798 90.3917 5.41284 90.3917 7.33945V50C89.933 50 89.4743 50.0917 89.0156 50.367C84.3367 51.3761 80.0247 52.3853 75.6211 53.3945V20.4587C75.5293 18.5321 74.7954 16.6972 73.4192 15.4128C72.0431 14.1284 70.2082 13.3028 68.2816 13.3028C66.355 13.3028 64.5201 14.0367 63.144 15.4128C61.7678 16.789 60.9422 18.5321 60.9422 20.4587V56.6972C55.6211 57.7064 50.9422 58.7156 46.2633 59.3578V42.3853C46.2633 41.3761 46.0798 40.4587 45.7128 39.5413C45.3458 38.6238 44.7954 37.7982 44.1532 37.0642C43.511 36.3303 42.6853 35.7798 41.7678 35.4128C40.8504 35.0459 39.933 34.8624 38.9238 34.8624C37.9146 34.8624 36.9972 35.0459 36.0798 35.4128C35.1623 35.7798 34.3367 36.3303 33.6945 37.0642C33.0523 37.7982 32.5018 38.6238 32.1348 39.5413C31.7678 40.4587 31.5844 41.4679 31.5844 42.3853V61.3761C14.8871 63.3945 5.16234 62.7523 4.15317 59.7248C1.76785 54.7706 17.1807 47.7064 21.5844 45.4128V45.0459H20.9422C16.6302 46.6972 -2.1771 54.4037 0.20822 61.0092C2.59354 68.3486 31.3091 70.367 91.2174 55.6881C141.401 43.3945 164.52 41.0092 166.905 45.6881C168.557 49.633 156.172 57.3394 144.153 62.6605C144.061 62.7523 143.97 62.9358 143.878 63.1193C143.786 63.3027 143.786 63.4862 143.786 63.6697C144.153 64.0367 144.428 64.3119 144.795 64.0367C149.107 62.3853 171.951 52.7523 170.85 44.7706C169.933 39.266 157.915 37.6147 134.795 40.9174ZM31.4009 75.9633V81.5596C31.4009 83.4862 32.2266 85.3211 33.6027 86.6055C34.9789 87.9817 36.8137 88.7156 38.7403 88.7156C40.6669 88.7156 42.5018 87.9817 43.8779 86.6055C45.2541 85.2294 45.988 83.4862 46.0798 81.5596V74.3119C41.2174 75.1376 36.355 75.6881 31.4009 75.9633ZM60.8504 71.8349V92.1101C60.8504 93.0275 61.0339 94.0367 61.3091 94.9541C61.5844 95.8716 62.1348 96.6973 62.8688 97.3395C63.511 98.0734 64.3367 98.6239 65.1623 98.9908C66.0798 99.3578 66.9972 99.5413 67.9146 99.633C68.8321 99.7248 69.8412 99.4496 70.7587 99.1743C71.6761 98.8074 72.5018 98.3486 73.144 97.6147C73.8779 96.9725 74.4284 96.1468 74.7954 95.3211C75.1623 94.4037 75.3458 93.4862 75.4376 92.5688C75.4376 92.4771 75.4376 92.3853 75.4376 92.2936V68.9908C70.6669 70.1835 65.8046 71.1926 60.8504 71.8349Z" fill="white"/>
<path d="M91.3099 65.597H90.3008V79.9089C90.3925 81.8355 91.2182 83.6703 92.5944 85.0465C93.9705 86.4226 95.8971 87.1566 97.8237 87.1566C99.7503 87.1566 101.677 86.4226 103.053 85.0465C104.429 83.6703 105.255 81.8355 105.347 79.9089V62.2942C101.035 63.3034 96.3558 64.3126 91.3099 65.597ZM119.75 58.9914V67.6153C119.75 68.6245 120.026 69.5419 120.393 70.4593C120.759 71.3768 121.402 72.2025 122.044 72.8447C122.778 73.4869 123.604 74.0373 124.521 74.4043C125.438 74.7713 126.448 74.9547 127.365 74.863C129.292 74.863 131.126 74.1291 132.503 72.7529C133.879 71.3768 134.704 69.5419 134.704 67.6153V56.0557C130.484 57.0648 125.438 57.9823 119.75 58.9914Z" fill="#B9FF66"/>
</svg>
