<svg width="433" height="100" viewBox="0 0 433 100" fill="none" xmlns="http://www.w3.org/2000/svg">
<path d="M134.795 40.9174V32.2936C134.795 30.2752 133.97 28.3486 132.594 26.9725C131.217 25.5963 129.291 24.7706 127.272 24.7706C125.254 24.7706 123.327 25.5963 121.951 26.9725C120.575 28.3486 119.75 30.2752 119.75 32.2936V43.3027C115.438 44.3119 110.392 45.3211 105.346 46.3303V7.33945C105.346 6.33028 105.071 5.41284 104.704 4.49541C104.337 3.57798 103.694 2.75228 103.052 2.11008C102.318 1.46788 101.493 0.917423 100.575 0.55045C99.6578 0.183478 98.6486 0 97.7311 0C95.8045 0 93.9697 0.825683 92.5935 2.20183C91.2174 3.57798 90.3917 5.41284 90.3917 7.33945V50C89.933 50 89.4743 50.0917 89.0156 50.367C84.3367 51.3761 80.0247 52.3853 75.6211 53.3945V20.4587C75.5293 18.5321 74.7954 16.6972 73.4192 15.4128C72.0431 14.1284 70.2082 13.3028 68.2816 13.3028C66.355 13.3028 64.5201 14.0367 63.144 15.4128C61.7678 16.789 60.9422 18.5321 60.9422 20.4587V56.6972C55.6211 57.7064 50.9422 58.7156 46.2633 59.3578V42.3853C46.2633 41.3761 46.0798 40.4587 45.7128 39.5413C45.3458 38.6238 44.7954 37.7982 44.1532 37.0642C43.511 36.3303 42.6853 35.7798 41.7678 35.4128C40.8504 35.0459 39.933 34.8624 38.9238 34.8624C37.9146 34.8624 36.9972 35.0459 36.0798 35.4128C35.1623 35.7798 34.3367 36.3303 33.6945 37.0642C33.0523 37.7982 32.5018 38.6238 32.1348 39.5413C31.7678 40.4587 31.5844 41.4679 31.5844 42.3853V61.3761C14.8871 63.3945 5.16234 62.7523 4.15317 59.7248C1.76785 54.7706 17.1807 47.7064 21.5844 45.4128V45.0459H20.9422C16.6302 46.6972 -2.1771 54.4037 0.20822 61.0092C2.59354 68.3486 31.3091 70.367 91.2174 55.6881C141.401 43.3945 164.52 41.0092 166.905 45.6881C168.557 49.633 156.172 57.3394 144.153 62.6605C144.061 62.7523 143.97 62.9358 143.878 63.1193C143.786 63.3027 143.786 63.4862 143.786 63.6697C144.153 64.0367 144.428 64.3119 144.795 64.0367C149.107 62.3853 171.951 52.7523 170.85 44.7706C169.933 39.266 157.915 37.6147 134.795 40.9174ZM31.4009 75.9633V81.5596C31.4009 83.4862 32.2266 85.3211 33.6027 86.6055C34.9789 87.9817 36.8137 88.7156 38.7403 88.7156C40.6669 88.7156 42.5018 87.9817 43.8779 86.6055C45.2541 85.2294 45.988 83.4862 46.0798 81.5596V74.3119C41.2174 75.1376 36.355 75.6881 31.4009 75.9633ZM60.8504 71.8349V92.1101C60.8504 93.0275 61.0339 94.0367 61.3091 94.9541C61.5844 95.8716 62.1348 96.6973 62.8688 97.3395C63.511 98.0734 64.3367 98.6239 65.1623 98.9908C66.0798 99.3578 66.9972 99.5413 67.9146 99.633C68.8321 99.7248 69.8412 99.4496 70.7587 99.1743C71.6761 98.8074 72.5018 98.3486 73.144 97.6147C73.8779 96.9725 74.4284 96.1468 74.7954 95.3211C75.1623 94.4037 75.3458 93.4862 75.4376 92.5688C75.4376 92.4771 75.4376 92.3853 75.4376 92.2936V68.9908C70.6669 70.1835 65.8046 71.1926 60.8504 71.8349Z" fill="#1E292B"/>
<path d="M91.3099 65.597H90.3008V79.9089C90.3925 81.8355 91.2182 83.6703 92.5944 85.0465C93.9705 86.4226 95.8971 87.1566 97.8237 87.1566C99.7503 87.1566 101.677 86.4226 103.053 85.0465C104.429 83.6703 105.255 81.8355 105.347 79.9089V62.2942C101.035 63.3034 96.3558 64.3126 91.3099 65.597ZM119.75 58.9914V67.6153C119.75 68.6245 120.026 69.5419 120.393 70.4593C120.759 71.3768 121.402 72.2025 122.044 72.8447C122.778 73.4869 123.604 74.0373 124.521 74.4043C125.438 74.7713 126.448 74.9547 127.365 74.863C129.292 74.863 131.126 74.1291 132.503 72.7529C133.879 71.3768 134.704 69.5419 134.704 67.6153V56.0557C130.484 57.0648 125.438 57.9823 119.75 58.9914Z" fill="#1E292B"/>
<path d="M225.988 42.4776C225.346 41.6519 224.52 41.0097 223.511 40.6427C222.41 40.184 221.309 40.0005 220.209 40.0005C219.016 40.0005 217.823 40.184 216.722 40.7345C215.621 41.1932 214.704 41.9271 213.878 42.8446C213.053 43.762 212.41 44.8629 212.043 45.9638C211.126 48.5326 211.126 51.2849 212.043 53.8538C212.502 54.9547 213.053 56.0556 213.878 56.973C214.612 57.7987 215.53 58.5326 216.631 58.9914C217.731 59.4501 218.832 59.7253 220.025 59.7253C221.309 59.7253 222.594 59.4501 223.695 58.8996C224.796 58.3492 225.621 57.5235 226.355 56.5143L231.952 60.7345C230.759 62.4776 229.016 63.8537 226.998 64.7712C225.071 65.5969 222.961 66.0556 220.851 66.0556C218.649 66.0556 216.355 65.6886 214.245 64.9547C212.319 64.2207 210.575 63.1198 209.016 61.7437C207.548 60.2758 206.355 58.6244 205.621 56.6978C203.97 52.3859 203.97 47.707 205.621 43.395C206.355 41.4684 207.548 39.7253 209.016 38.3492C210.484 36.973 212.319 35.8721 214.245 35.1381C216.355 34.4042 218.557 34.0372 220.851 34.0372C221.768 34.0372 222.686 34.129 223.511 34.3125C224.429 34.4959 225.346 34.7712 226.264 35.0464C227.181 35.4134 228.098 35.8721 228.832 36.4226C229.658 36.973 230.392 37.707 231.034 38.5327L225.988 42.4776Z" fill="#1E292B"/>
<path d="M239.383 49.8168C239.383 47.5232 239.75 45.3214 240.575 43.2113C241.309 41.2847 242.502 39.5416 243.97 38.1654C245.438 36.7893 247.273 35.6884 249.199 34.9544C253.511 33.4865 258.098 33.4865 262.41 34.9544C264.337 35.6884 266.08 36.7893 267.64 38.1654C269.107 39.6333 270.3 41.2847 271.034 43.2113C272.685 47.5232 272.685 52.2021 271.034 56.5141C270.3 58.4407 269.107 60.1838 267.64 61.5599C266.172 62.9361 264.337 64.037 262.41 64.7709C258.098 66.2388 253.511 66.2388 249.199 64.7709C247.273 64.037 245.529 62.9361 243.97 61.5599C242.502 60.092 241.309 58.4407 240.575 56.5141C239.75 54.3122 239.291 52.0187 239.383 49.8168ZM246.355 49.8168C246.355 51.193 246.539 52.4774 246.997 53.7618C247.456 54.9544 248.098 55.9636 248.924 56.881C249.75 57.7985 250.759 58.4407 251.951 58.8994C254.429 59.9086 257.273 59.9086 259.75 58.8994C260.851 58.4407 261.86 57.7067 262.777 56.881C263.603 55.9636 264.245 54.9544 264.704 53.7618C265.621 51.193 265.621 48.4407 264.704 45.8719C264.245 44.6792 263.603 43.67 262.777 42.7526C261.951 41.8352 260.942 41.193 259.75 40.7343C257.273 39.7251 254.429 39.7251 251.951 40.7343C250.851 41.193 249.841 41.9269 248.924 42.7526C248.098 43.67 247.456 44.6792 246.997 45.8719C246.539 47.1563 246.355 48.4407 246.355 49.8168Z" fill="#1E292B"/>
<path d="M309.843 62.936C307.917 63.9452 305.806 64.6792 303.605 65.1379C301.403 65.5966 299.201 65.8718 296.999 65.7801C294.797 65.7801 292.504 65.4131 290.394 64.6792C288.467 63.9452 286.724 62.8443 285.164 61.4681C283.696 60.0003 282.504 58.3489 281.77 56.4223C280.118 52.1104 280.118 47.4315 281.77 43.1195C282.504 41.1929 283.696 39.4498 285.164 38.0737C286.632 36.6975 288.467 35.5966 290.394 34.8626C292.504 34.1287 294.706 33.7617 296.999 33.7617C299.293 33.7617 301.586 34.0369 303.696 34.6791C305.715 35.2296 307.55 36.3305 309.109 37.7067L304.339 42.8443C303.421 41.9269 302.412 41.1929 301.219 40.7342C300.027 40.2755 298.651 40.0003 296.907 40.0003C295.531 40.0003 294.247 40.2755 292.962 40.7342C291.862 41.1929 290.852 41.9269 289.935 42.7525C289.109 43.67 288.467 44.6792 288.008 45.8718C287.091 48.4406 287.091 51.1929 288.008 53.7617C288.467 54.9544 289.109 55.9636 289.935 56.881C290.761 57.7984 291.77 58.4406 292.962 58.8993C294.155 59.3581 295.531 59.6333 296.907 59.6333C298.192 59.6333 299.476 59.4498 300.669 59.1746C301.586 58.8993 302.412 58.6241 303.238 58.1654V53.1195H297.733V46.881H309.66V62.936H309.843Z" fill="#1E292B"/>
<path d="M321.125 34.4961H330.299L343.235 55.6888H343.327V34.4961H350.024V65.0466H341.217L327.914 43.3034H327.822V65.0466H321.125V34.4961Z" fill="#1E292B"/>
<path d="M361.586 34.496H368.283V65.0464H361.586V34.496Z" fill="#1E292B"/>
<path d="M385.716 40.4594H377V34.4961H401.128V40.4594H392.413V65.0466H385.716V40.4594Z" fill="#1E292B"/>
<path d="M410.117 34.4961H430.851V40.7346H416.814V46.4227H430.117V52.6612H416.906V58.8998H431.677V65.1383H410.209V34.4961H410.117Z" fill="#1E292B"/>
</svg>
