<svg width="418" height="77" viewBox="0 0 418 77" fill="none" xmlns="http://www.w3.org/2000/svg">
<g clip-path="url(#clip0_2430_3722)">
<mask id="mask0_2430_3722" style="mask-type:luminance" maskUnits="userSpaceOnUse" x="0" y="0" width="418" height="77">
<path d="M417.468 0H0V77H417.468V0Z" fill="white"/>
</mask>
<g mask="url(#mask0_2430_3722)">
<path d="M355.432 30.8344C364.01 30.8344 370.963 23.9319 370.963 15.4172C370.963 6.90251 364.01 0 355.432 0C346.855 0 339.901 6.90251 339.901 15.4172C339.901 23.9319 346.855 30.8344 355.432 30.8344Z" fill="#B9FF66"/>
<path fill-rule="evenodd" clip-rule="evenodd" d="M396.506 7.02935C385.206 7.2173 376.248 16.604 376.248 27.8273V36.0755H367.598C356.216 36.0755 346.988 45.2367 346.988 56.5352C346.988 67.8333 356.216 76.9947 367.598 76.9947H396.831C408.229 76.9947 417.474 67.8226 417.474 56.5031V27.4889C417.474 16.0724 408.056 6.83604 396.506 7.02935Z" fill="#B9FF66"/>
<path d="M305.589 32.3703L306.005 22.7741H287.099V74.9863H305.994V53.442C305.994 49.0601 307.633 38.3363 324.371 41.5797V22.8278C314.59 20.6637 308.748 24.4495 305.583 32.3703H305.589Z" fill="#1E292B"/>
<path d="M29.3628 3.51196H0V74.9862H29.3628C52.4236 74.9862 67.9164 60.6268 67.9164 39.2491C67.9164 17.8712 52.4236 3.51196 29.3628 3.51196ZM28.8543 59.2739H19.7123V19.2245H28.8543C40.1873 19.2245 47.7985 27.2687 47.7985 39.2491C47.7985 51.2295 40.1819 59.2739 28.8543 59.2739Z" fill="#1E292B"/>
<path d="M93.5411 26.9197H74.646V74.9862H93.5411V26.9197Z" fill="#1E292B"/>
<path d="M84.0959 21.8021C90.1606 21.8021 95.0775 16.9215 95.0775 10.9011C95.0775 4.88056 90.1606 0 84.0959 0C78.0311 0 73.1147 4.88056 73.1147 10.9011C73.1147 16.9215 78.0311 21.8021 84.0959 21.8021Z" fill="#1E292B"/>
<path d="M135.189 21.7538C125.879 21.7967 121.146 26.9733 121.146 26.9733V3.51196H102.25V74.9862H121.146V70.7763C121.146 70.7763 126.134 76.0819 135.189 75.9904C149.286 75.9904 159.137 64.8372 159.137 48.8721C159.137 32.9072 149.286 21.7538 135.189 21.7538ZM130.694 59.2739C124.63 59.2739 119.713 54.3925 119.713 48.3727C119.713 42.353 124.63 37.4717 130.694 37.4717C136.758 37.4717 141.675 42.353 141.675 48.3727C141.675 54.3925 136.758 59.2739 130.694 59.2739Z" fill="#1E292B"/>
<path d="M197.788 21.7538C188.478 21.7967 183.745 26.9733 183.745 26.9733V3.51196H164.849V74.9862H183.745V70.7763C183.745 70.7763 188.732 76.0819 197.788 75.9904C211.885 75.9904 221.736 64.8372 221.736 48.8721C221.736 32.9072 211.885 21.7538 197.788 21.7538ZM193.293 59.2739C187.228 59.2739 182.311 54.3925 182.311 48.3727C182.311 42.353 187.228 37.4717 193.293 37.4717C199.357 37.4717 204.274 42.353 204.274 48.3727C204.274 54.3925 199.357 59.2739 193.293 59.2739Z" fill="#1E292B"/>
<path d="M254.285 20.728C238.04 20.728 226.248 32.558 226.248 48.8613C226.248 65.1644 238.127 76.9946 254.485 76.9946C270.844 76.9946 277.357 66.1739 278.812 62.6945L263.643 56.8088C262.253 60.1006 258.688 62.286 254.686 62.286C246.338 61.8619 245.479 54.7844 245.479 54.7844H280.846C284.022 37.1709 273.587 20.7227 254.275 20.7227L254.285 20.728ZM245.495 42.2186C245.495 37.928 249.665 34.4483 254.81 34.4483C259.954 34.4483 264.125 37.928 264.125 42.2186H245.495Z" fill="#1E292B"/>
</g>
</g>
<defs>
<clipPath id="clip0_2430_3722">
<rect width="418" height="77" fill="white"/>
</clipPath>
</defs>
</svg>
