<svg width="114" height="100" viewBox="0 0 114 100" fill="none" xmlns="http://www.w3.org/2000/svg">
<g clip-path="url(#clip0_2022_3822)">
<path d="M113.882 0H0V100H113.882V0Z" fill="#1E292B"/>
<path d="M82.6946 36.9929V57.0897C82.6946 60.6625 82.5457 61.7045 82.0247 62.2255C81.5781 62.6721 80.5733 62.7838 78.7125 62.7838H76.1073C74.2465 62.7838 73.2417 62.6721 72.7951 62.2255C72.3113 61.7417 72.1252 60.6997 72.1252 57.0897V36.9929H75.9957V28.396H56.7549V36.9929H60.737V56.0849C60.737 64.6446 61.6674 67.2125 63.7515 69.3338C65.5007 71.083 67.7337 71.604 72.6834 71.604H81.8758C86.8256 71.604 89.0586 71.1202 90.8077 69.3338C92.8918 67.2497 93.8222 64.6446 93.8222 56.0849V36.9929H97.8788V28.396H78.8613V36.9929H82.6946Z" fill="white"/>
<path d="M40.6401 63.0071V36.8069H45.2177V43.9152H54.0007V28.396H16.0029V43.9152H24.7487V36.8069H29.3263V63.0071H24.8604V71.604H45.106V63.0071H40.6401Z" fill="white"/>
</g>
<defs>
<clipPath id="clip0_2022_3822">
<rect width="113.882" height="100" fill="white"/>
</clipPath>
</defs>
</svg>
