<svg width="114" height="100" viewBox="0 0 114 100" fill="none" xmlns="http://www.w3.org/2000/svg">
<g clip-path="url(#clip0_1629_1264)">
<path d="M113.882 0H0V100H113.882V0Z" fill="#1E292B"/>
<path d="M82.6936 36.9929V57.0897C82.6936 60.6625 82.5447 61.7045 82.0237 62.2255C81.5771 62.6721 80.5723 62.7838 78.7115 62.7838H76.1063C74.2455 62.7838 73.2407 62.6721 72.7941 62.2255C72.3103 61.7417 72.1242 60.6997 72.1242 57.0897V36.9929H75.9947V28.396H56.7539V36.9929H60.736V56.0849C60.736 64.6446 61.6664 67.2125 63.7506 69.3338C65.4997 71.083 67.7327 71.604 72.6825 71.604H81.8749C86.8246 71.604 89.0576 71.1202 90.8068 69.3338C92.8909 67.2497 93.8213 64.6446 93.8213 56.0849V36.9929H97.8778V28.396H78.8603V36.9929H82.6936Z" fill="white"/>
<path d="M40.641 63.0071V36.8069H45.2186V43.9152H54.0017V28.396H16.0039V43.9152H24.7497V36.8069H29.3273V63.0071H24.8614V71.604H45.107V63.0071H40.641Z" fill="white"/>
</g>
<defs>
<clipPath id="clip0_1629_1264">
<rect width="113.882" height="100" fill="white"/>
</clipPath>
</defs>
</svg>
