<svg width="153" height="100" viewBox="0 0 153 100" fill="none" xmlns="http://www.w3.org/2000/svg">
<g clip-path="url(#clip0_2158_1512)">
<path d="M119.221 47.985C119.221 74.4833 97.7282 95.96 71.2104 95.96C44.7081 95.96 23.2148 74.4833 23.2148 47.985C23.2148 21.4861 44.7081 0.00979614 71.2104 0.00979614C97.7282 0.00979614 119.221 21.4861 119.221 47.985Z" fill="#1E292B"/>
<path d="M0 68.9345L9.81199 44.6636H19.2385L9.43731 68.9345H0Z" fill="#1E292B"/>
<path d="M121.075 68.9345L130.76 44.6636H135.896L126.216 68.9345H121.075Z" fill="#1E292B"/>
<path d="M140.122 68.9344L149.806 44.6634H152.543L142.852 68.9344H140.122Z" fill="#1E292B"/>
<path d="M75.5264 60.166H70.5874C68.617 60.166 67.0166 58.5763 67.0166 56.6014C67.0166 54.6275 68.617 53.0373 70.5874 53.0373H71.9653C73.9309 53.0373 75.5264 54.6275 75.5264 56.6014V60.166ZM112.16 44.6636H103.624C103.624 44.6636 103.043 44.6636 102.834 45.1903L98.1084 59.6293L93.3918 45.1903C93.1795 44.6636 92.5871 44.6636 92.5871 44.6636H76.1797C75.8253 44.6636 75.5264 44.9676 75.5264 45.3117V50.2227C75.5264 46.3241 71.3828 44.6636 68.9565 44.6636C63.526 44.6636 59.8843 48.2479 58.7548 53.6754C58.6939 50.0708 58.3896 48.7849 57.4223 47.4583C56.9764 46.8103 56.328 46.2637 55.624 45.8181C54.1801 44.9676 52.8786 44.6636 50.0878 44.6636H46.7999C46.7999 44.6636 46.2124 44.6636 46.0051 45.1903L43.0159 52.5717V45.3117C43.0159 44.9676 42.7273 44.6636 42.368 44.6636H34.7797C34.7797 44.6636 34.1924 44.6636 33.9795 45.1903L30.8791 52.8653C30.8791 52.8653 30.5655 53.645 31.2796 53.645H34.1924V68.2865C34.1924 68.6408 34.4756 68.9345 34.8455 68.9345H42.368C42.7273 68.9345 43.0159 68.6408 43.0159 68.2865V53.645H45.9542C47.6305 53.645 47.9903 53.6856 48.6441 53.9895C49.0391 54.1412 49.3934 54.4345 49.5859 54.7893C49.9862 55.5384 50.0878 56.4295 50.0878 59.0723V68.2865C50.0878 68.6408 50.3764 68.9345 50.7356 68.9345H57.9493C57.9493 68.9345 58.765 68.9345 59.084 68.1349L60.6845 64.1857C62.812 67.1525 66.3073 68.9345 70.6536 68.9345H71.6008C71.6008 68.9345 72.4213 68.9345 72.7452 68.1349L75.5264 61.2393V68.2865C75.5264 68.6408 75.8253 68.9345 76.1797 68.9345H83.5396C83.5396 68.9345 84.3555 68.9345 84.6799 68.1349C84.6799 68.1349 87.6224 60.8243 87.6326 60.7737H87.638C87.7545 60.166 86.9842 60.166 86.9842 60.166H84.3555V47.6302L92.6228 68.1349C92.9466 68.9345 93.762 68.9345 93.762 68.9345H102.454C102.454 68.9345 103.275 68.9345 103.594 68.1349L112.763 45.4531C113.076 44.6636 112.16 44.6636 112.16 44.6636Z" fill="#B9FF66"/>
</g>
<defs>
<clipPath id="clip0_2158_1512">
<rect width="152.542" height="100" fill="white"/>
</clipPath>
</defs>
</svg>
