<svg width="153" height="100" viewBox="0 0 153 100" fill="none" xmlns="http://www.w3.org/2000/svg">
<g clip-path="url(#clip0_2022_3854)">
<path d="M0 68.9345L9.81199 44.6636H19.2385L9.43731 68.9345H0Z" fill="#1E292B"/>
<path d="M121.075 68.9345L130.76 44.6636H135.896L126.216 68.9345H121.075Z" fill="#1E292B"/>
<path d="M140.122 68.9344L149.806 44.6634H152.543L142.852 68.9344H140.122Z" fill="#1E292B"/>
<path fill-rule="evenodd" clip-rule="evenodd" d="M71.2104 95.9599C97.7282 95.9599 119.221 74.4833 119.221 47.9849C119.221 21.4861 97.7282 0.00976562 71.2104 0.00976562C44.7081 0.00976562 23.2148 21.4861 23.2148 47.9849C23.2148 74.4833 44.7081 95.9599 71.2104 95.9599ZM70.5874 60.1659H75.5264V56.6014C75.5264 54.6275 73.9309 53.0373 71.9653 53.0373H70.5874C68.617 53.0373 67.0166 54.6275 67.0166 56.6014C67.0166 58.5762 68.617 60.1659 70.5874 60.1659ZM103.624 44.6635H112.16C112.16 44.6635 113.076 44.6635 112.763 45.4531L103.594 68.1349C103.275 68.9345 102.454 68.9345 102.454 68.9345H93.762C93.762 68.9345 92.9466 68.9345 92.6228 68.1349L84.3555 47.6302V60.1659H86.9842C86.9842 60.1659 87.7545 60.1659 87.638 60.7737H87.6326C87.6224 60.8243 84.6799 68.1349 84.6799 68.1349C84.3555 68.9345 83.5396 68.9345 83.5396 68.9345H76.1797C75.8253 68.9345 75.5264 68.6408 75.5264 68.2864V61.2393L72.7452 68.1349C72.4213 68.9345 71.6008 68.9345 71.6008 68.9345H70.6536C66.3073 68.9345 62.812 67.1525 60.6844 64.1857L59.084 68.1349C58.765 68.9345 57.9493 68.9345 57.9493 68.9345H50.7356C50.3764 68.9345 50.0878 68.6408 50.0878 68.2864V59.0722C50.0878 56.4294 49.9862 55.5384 49.5859 54.7892C49.3934 54.4345 49.0391 54.1412 48.6441 53.9894C47.9903 53.6856 47.6305 53.645 45.9542 53.645H43.0159V68.2864C43.0159 68.6408 42.7273 68.9345 42.368 68.9345H34.8455C34.4756 68.9345 34.1924 68.6408 34.1924 68.2864V53.645H31.2796C30.5655 53.645 30.8791 52.8653 30.8791 52.8653L33.9795 45.1903C34.1924 44.6635 34.7797 44.6635 34.7797 44.6635H42.368C42.7273 44.6635 43.0159 44.9676 43.0159 45.3117V52.5717L46.0051 45.1903C46.2124 44.6635 46.7999 44.6635 46.7999 44.6635H50.0878C52.8786 44.6635 54.1801 44.9676 55.624 45.818C56.328 46.2637 56.9764 46.8102 57.4223 47.4583C58.3896 48.7849 58.6939 50.0708 58.7548 53.6753C59.8843 48.2479 63.526 44.6635 68.9565 44.6635C71.3828 44.6635 75.5264 46.324 75.5264 50.2226V45.3117C75.5264 44.9676 75.8253 44.6635 76.1797 44.6635H92.5871C92.5871 44.6635 93.1795 44.6635 93.3918 45.1903L98.1084 59.6292L102.834 45.1903C103.043 44.6635 103.624 44.6635 103.624 44.6635Z" fill="#1E292B"/>
</g>
<defs>
<clipPath id="clip0_2022_3854">
<rect width="152.542" height="100" fill="white"/>
</clipPath>
</defs>
</svg>
