<svg width="154" height="96" viewBox="0 0 154 96" fill="none" xmlns="http://www.w3.org/2000/svg">
<g clip-path="url(#clip0_2022_3863)">
<path d="M1 68.9247L10.812 44.6537H20.2385L10.4373 68.9247H1Z" fill="white"/>
<path d="M122.075 68.9247L131.76 44.6537H136.896L127.216 68.9247H122.075Z" fill="white"/>
<path d="M141.122 68.9246L150.806 44.6537H153.543L143.852 68.9246H141.122Z" fill="white"/>
<path fill-rule="evenodd" clip-rule="evenodd" d="M72.2104 95.9502C98.7282 95.9502 120.221 74.4736 120.221 47.9752C120.221 21.4764 98.7282 6.10352e-05 72.2104 6.10352e-05C45.7081 6.10352e-05 24.2148 21.4764 24.2148 47.9752C24.2148 74.4736 45.7081 95.9502 72.2104 95.9502ZM71.5874 60.1562H76.5264V56.5917C76.5264 54.6177 74.9309 53.0275 72.9653 53.0275H71.5874C69.617 53.0275 68.0166 54.6177 68.0166 56.5917C68.0166 58.5665 69.617 60.1562 71.5874 60.1562ZM104.624 44.6538H113.16C113.16 44.6538 114.076 44.6538 113.763 45.4433L104.594 68.1251C104.275 68.9247 103.454 68.9247 103.454 68.9247H94.762C94.762 68.9247 93.9466 68.9247 93.6228 68.1251L85.3555 47.6204V60.1562H87.9842C87.9842 60.1562 88.7545 60.1562 88.638 60.7639H88.6326C88.6224 60.8145 85.6799 68.1251 85.6799 68.1251C85.3555 68.9247 84.5396 68.9247 84.5396 68.9247H77.1797C76.8253 68.9247 76.5264 68.631 76.5264 68.2767V61.2295L73.7452 68.1251C73.4213 68.9247 72.6008 68.9247 72.6008 68.9247H71.6536C67.3073 68.9247 63.812 67.1427 61.6845 64.1759L60.084 68.1251C59.765 68.9247 58.9493 68.9247 58.9493 68.9247H51.7356C51.3764 68.9247 51.0878 68.631 51.0878 68.2767V59.0625C51.0878 56.4197 50.9862 55.5286 50.5859 54.7795C50.3934 54.4247 50.0391 54.1314 49.6441 53.9797C48.9903 53.6758 48.6305 53.6352 46.9542 53.6352H44.0159V68.2767C44.0159 68.631 43.7273 68.9247 43.368 68.9247H35.8455C35.4756 68.9247 35.1924 68.631 35.1924 68.2767V53.6352H32.2796C31.5655 53.6352 31.8791 52.8555 31.8791 52.8555L34.9795 45.1805C35.1924 44.6538 35.7797 44.6538 35.7797 44.6538H43.368C43.7273 44.6538 44.0159 44.9578 44.0159 45.3019V52.5619L47.0051 45.1805C47.2124 44.6538 47.7999 44.6538 47.7999 44.6538H51.0878C53.8786 44.6538 55.1801 44.9578 56.624 45.8083C57.328 46.2539 57.9764 46.8005 58.4223 47.4485C59.3896 48.7751 59.6939 50.061 59.7548 53.6656C60.8843 48.2382 64.526 44.6538 69.9565 44.6538C72.3828 44.6538 76.5264 46.3143 76.5264 50.2129V45.3019C76.5264 44.9578 76.8253 44.6538 77.1797 44.6538H93.5871C93.5871 44.6538 94.1795 44.6538 94.3918 45.1805L99.1084 59.6195L103.834 45.1805C104.043 44.6538 104.624 44.6538 104.624 44.6538Z" fill="white"/>
</g>
<defs>
<clipPath id="clip0_2022_3863">
<rect width="153" height="96" fill="white" transform="translate(0.770996)"/>
</clipPath>
</defs>
</svg>
