<svg width="153" height="96" viewBox="0 0 153 96" fill="none" xmlns="http://www.w3.org/2000/svg">
<g clip-path="url(#clip0_2158_1495)">
<path d="M0.229004 68.9247L10.041 44.6537H19.4675L9.66631 68.9247H0.229004Z" fill="#B9FF66"/>
<path d="M121.304 68.9247L130.99 44.6537H136.126L126.445 68.9247H121.304Z" fill="#B9FF66"/>
<path d="M140.351 68.9246L150.035 44.6537H152.772L143.081 68.9246H140.351Z" fill="#B9FF66"/>
<path d="M119.45 47.9752C119.45 74.4736 97.9572 95.9502 71.4394 95.9502C44.9371 95.9502 23.4438 74.4736 23.4438 47.9752C23.4438 21.4763 44.9371 3.05176e-05 71.4394 3.05176e-05C97.9572 3.05176e-05 119.45 21.4763 119.45 47.9752Z" fill="#B9FF66"/>
<path d="M75.7554 60.1561H70.8164C68.846 60.1561 67.2456 58.5664 67.2456 56.5916C67.2456 54.6177 68.846 53.0275 70.8164 53.0275H72.1943C74.1599 53.0275 75.7554 54.6177 75.7554 56.5916V60.1561ZM112.389 44.6537H103.853C103.853 44.6537 103.272 44.6537 103.063 45.1805L98.3374 59.6194L93.6208 45.1805C93.4085 44.6537 92.8161 44.6537 92.8161 44.6537H76.4087C76.0543 44.6537 75.7554 44.9578 75.7554 45.3019V50.2128C75.7554 46.3142 71.6118 44.6537 69.1855 44.6537C63.755 44.6537 60.1133 48.2381 58.9838 53.6655C58.9229 50.061 58.6186 48.7751 57.6513 47.4485C57.2054 46.8004 56.557 46.2539 55.853 45.8082C54.4092 44.9578 53.1076 44.6537 50.3168 44.6537H47.0289C47.0289 44.6537 46.4414 44.6537 46.2341 45.1805L43.2449 52.5619V45.3019C43.2449 44.9578 42.9563 44.6537 42.597 44.6537H35.0087C35.0087 44.6537 34.4214 44.6537 34.2085 45.1805L31.1081 52.8555C31.1081 52.8555 30.7945 53.6352 31.5086 53.6352H34.4214V68.2766C34.4214 68.631 34.7046 68.9247 35.0745 68.9247H42.597C42.9563 68.9247 43.2449 68.631 43.2449 68.2766V53.6352H46.1832C47.8595 53.6352 48.2193 53.6758 48.8731 53.9797C49.2681 54.1314 49.6224 54.4247 49.8149 54.7795C50.2152 55.5286 50.3168 56.4196 50.3168 59.0624V68.2766C50.3168 68.631 50.6054 68.9247 50.9646 68.9247H58.1783C58.1783 68.9247 58.994 68.9247 59.313 68.1251L60.9135 64.1759C63.041 67.1427 66.5363 68.9247 70.8826 68.9247H71.8298C71.8298 68.9247 72.6503 68.9247 72.9742 68.1251L75.7554 61.2295V68.2766C75.7554 68.631 76.0543 68.9247 76.4087 68.9247H83.7686C83.7686 68.9247 84.5845 68.9247 84.9089 68.1251C84.9089 68.1251 87.8514 60.8145 87.8616 60.7639H87.867C87.9835 60.1561 87.2132 60.1561 87.2132 60.1561H84.5845V47.6204L92.8518 68.1251C93.1756 68.9247 93.991 68.9247 93.991 68.9247H102.683C102.683 68.9247 103.504 68.9247 103.823 68.1251L112.992 45.4433C113.305 44.6537 112.389 44.6537 112.389 44.6537Z" fill="#1E292B"/>
</g>
<defs>
<clipPath id="clip0_2158_1495">
<rect width="153" height="96" fill="white"/>
</clipPath>
</defs>
</svg>
