<svg width="1219" height="878" viewBox="0 0 1219 878" fill="none" xmlns="http://www.w3.org/2000/svg">
<g clip-path="url(#clip0_1623_2624)">
<path d="M319.32 0H374.22L58.55 877.33H0L319.32 0Z" fill="black"/>
<path d="M109.4 584.89H160.55L195.77 490.28L207.04 459.32C209.15 453.53 212.08 448.05 215.99 443.29C223.76 433.85 234.04 427.93 247.42 427.93C271.65 427.93 290.09 443.37 290.09 471.89V584.89H344.98V457.74C344.98 408.21 311.32 376.9 263.71 376.9H237.02L267.76 292.44H212.87L106.43 584.88H109.39L109.4 584.89Z" fill="black"/>
<path d="M2.96 877.33H58.55L89.33 782.72L100.6 751.76C102.71 745.97 105.64 740.49 109.55 735.73C117.32 726.29 127.6 720.37 140.98 720.37C165.21 720.37 183.65 735.81 183.65 764.33V877.33H238.54V750.18C238.54 700.65 204.88 669.34 157.27 669.34H130.58L161.32 584.88H106.43L0 877.33H2.96Z" fill="black"/>
<path d="M215.84 292.44H266.99L302.21 197.83L313.48 166.87C315.59 161.08 318.52 155.6 322.43 150.84C330.2 141.4 340.48 135.48 353.86 135.48C378.09 135.48 396.53 150.92 396.53 179.44V292.44H451.42V165.29C451.42 115.76 417.76 84.45 370.15 84.45H343.46L374.22 0H319.33L212.89 292.44H215.85H215.84Z" fill="black"/>
<path d="M422.2 877.33H367.3L682.97 0H741.52L422.2 877.33Z" fill="black"/>
<path d="M632.12 292.44H580.97L545.75 387.05L534.48 418.01C532.37 423.8 529.44 429.28 525.53 434.04C517.76 443.48 507.48 449.4 494.1 449.4C469.87 449.4 451.43 433.96 451.43 405.44V292.44H396.54V419.59C396.54 469.12 430.2 500.43 477.81 500.43H504.5L473.76 584.89H528.65L635.09 292.45H632.13L632.12 292.44Z" fill="black"/>
<path d="M738.56 0H682.97L652.19 94.61L640.92 125.57C638.81 131.36 635.88 136.84 631.97 141.6C624.2 151.04 613.92 156.96 600.54 156.96C576.31 156.96 557.87 141.52 557.87 113V0H502.98V127.15C502.98 176.68 536.64 207.99 584.25 207.99H610.94L580.2 292.45H635.09L741.52 0H738.56Z" fill="black"/>
<path d="M525.68 584.89H474.53L439.31 679.5L428.04 710.46C425.93 716.25 423 721.73 419.09 726.49C411.32 735.93 401.04 741.85 387.66 741.85C363.43 741.85 344.99 726.41 344.99 697.89V584.89H290.1V712.04C290.1 761.57 323.76 792.88 371.37 792.88H398.06L367.32 877.34H422.21L528.65 584.9H525.69L525.68 584.89Z" fill="black"/>
<path d="M796.52 0H851.42L535.75 877.33H477.2L796.52 0Z" fill="black"/>
<path d="M586.6 584.89H637.75L672.97 490.28L684.24 459.32C686.35 453.53 689.28 448.05 693.19 443.29C700.96 433.85 711.24 427.93 724.62 427.93C748.85 427.93 767.29 443.37 767.29 471.89V584.89H822.18V457.74C822.18 408.21 788.52 376.9 740.91 376.9H714.22L744.96 292.44H690.07L583.63 584.88H586.59L586.6 584.89Z" fill="black"/>
<path d="M480.16 877.33H535.75L566.53 782.72L577.8 751.76C579.91 745.97 582.84 740.49 586.75 735.73C594.52 726.29 604.8 720.37 618.18 720.37C642.41 720.37 660.85 735.81 660.85 764.33V877.33H715.74V750.18C715.74 700.65 682.08 669.34 634.47 669.34H607.78L638.52 584.88H583.63L477.19 877.32H480.15L480.16 877.33Z" fill="black"/>
<path d="M693.04 292.44H744.19L779.41 197.83L790.68 166.87C792.79 161.08 795.72 155.6 799.63 150.84C807.4 141.4 817.68 135.48 831.06 135.48C855.29 135.48 873.73 150.92 873.73 179.44V292.44H928.62V165.29C928.62 115.76 894.96 84.45 847.35 84.45H820.66L851.42 0H796.53L690.09 292.44H693.05H693.04Z" fill="black"/>
<path d="M899.4 877.33H844.5L1160.17 0H1218.72L899.4 877.33Z" fill="black"/>
<path d="M1109.32 292.44H1058.17L1022.95 387.05L1011.68 418.01C1009.57 423.8 1006.64 429.28 1002.73 434.04C994.96 443.48 984.68 449.4 971.3 449.4C947.07 449.4 928.63 433.96 928.63 405.44V292.44H873.74V419.59C873.74 469.12 907.4 500.43 955.01 500.43H981.7L950.96 584.89H1005.85L1112.29 292.45H1109.33L1109.32 292.44Z" fill="black"/>
<path d="M1215.76 0H1160.17L1129.39 94.61L1118.12 125.57C1116.01 131.36 1113.08 136.84 1109.17 141.6C1101.4 151.04 1091.12 156.96 1077.74 156.96C1053.51 156.96 1035.07 141.52 1035.07 113V0H980.18V127.15C980.18 176.68 1013.84 207.99 1061.45 207.99H1088.14L1057.4 292.45H1112.29L1218.72 0H1215.76Z" fill="black"/>
<path d="M1002.88 584.89H951.73L916.51 679.5L905.24 710.46C903.13 716.25 900.2 721.73 896.29 726.49C888.52 735.93 878.24 741.85 864.86 741.85C840.63 741.85 822.19 726.41 822.19 697.89V584.89H767.3V712.04C767.3 761.57 800.96 792.88 848.57 792.88H875.26L844.52 877.34H899.41L1005.85 584.9H1002.89L1002.88 584.89Z" fill="black"/>
</g>
<defs>
<clipPath id="clip0_1623_2624">
<rect width="1218.72" height="877.33" fill="white"/>
</clipPath>
</defs>
</svg>
