<svg width="1099" height="755" viewBox="0 0 1099 755" fill="none" xmlns="http://www.w3.org/2000/svg">
<path d="M85.5374 441.747H3L163.056 2H245.594L85.5374 441.747Z" stroke="#1E292B" stroke-width="4" stroke-miterlimit="10"/>
<path d="M215.193 312.32H132.656L245.609 2H328.146L215.193 312.32Z" stroke="#1E292B" stroke-width="4" stroke-miterlimit="10"/>
<path d="M250.673 441.747H168.136L328.192 2H410.73L250.673 441.747Z" stroke="#1E292B" stroke-width="4" stroke-miterlimit="10"/>
<path d="M380.344 312.32H297.791L410.744 2H493.282L380.344 312.32Z" stroke="#1E292B" stroke-width="4" stroke-miterlimit="10"/>
<path d="M933.03 79.5648L961.249 2H493.282L465.048 79.5648H933.03Z" stroke="#1E292B" stroke-width="4" stroke-miterlimit="10"/>
<path d="M767.055 157.145L795.29 79.5801H465.048L436.814 157.145H767.055Z" stroke="#1E292B" stroke-width="4" stroke-miterlimit="10"/>
<path d="M876.56 234.741L904.779 157.176H436.813L408.578 234.741H876.56Z" stroke="#1E292B" stroke-width="4" stroke-miterlimit="10"/>
<path d="M710.586 312.321L738.82 234.756H408.579L380.344 312.321H710.586Z" stroke="#1E292B" stroke-width="4" stroke-miterlimit="10"/>
<path d="M220.289 752.099H137.736L297.793 312.352H380.345L220.289 752.099Z" stroke="#1E292B" stroke-width="4" stroke-miterlimit="10"/>
<path d="M349.944 622.672H267.407L380.345 312.352H462.898L349.944 622.672Z" stroke="#1E292B" stroke-width="4" stroke-miterlimit="10"/>
<path d="M385.424 752.099H302.871L462.927 312.352H545.48L385.424 752.099Z" stroke="#1E292B" stroke-width="4" stroke-miterlimit="10"/>
<path d="M515.079 622.672H432.542L545.495 312.352H628.032L515.079 622.672Z" stroke="#1E292B" stroke-width="4" stroke-miterlimit="10"/>
<path d="M1067.77 389.916L1096 312.352H628.034L599.799 389.916H1067.77Z" stroke="#1E292B" stroke-width="4" stroke-miterlimit="10"/>
<path d="M901.806 467.498L930.026 389.934H599.8L571.565 467.498H901.806Z" stroke="#1E292B" stroke-width="4" stroke-miterlimit="10"/>
<path d="M1011.3 545.107L1039.53 467.542H571.564L543.329 545.107H1011.3Z" stroke="#1E292B" stroke-width="4" stroke-miterlimit="10"/>
<path d="M845.337 622.687L873.556 545.107H543.33L515.095 622.672L845.337 622.687Z" stroke="#1E292B" stroke-width="4" stroke-miterlimit="10"/>
</svg>
